<svg width="80" height="80" xmlns="http://www.w3.org/2000/svg" xmlns:xlink="http://www.w3.org/1999/xlink"><defs><path id="a" d="M.007 29.887V.04h42.212v29.847z"/></defs><g fill="none" fill-rule="evenodd"><path d="M23.437 29.773H12.244c-.486 0-.88-.41-.88-.917v-2.57c0-3.723 2.9-6.74 6.477-6.74 3.577 0 6.477 3.017 6.477 6.74v2.57c0 .506-.394.917-.88.917" fill="#29EB7F"/><path d="M31.108 52.7c-1.305-.874-2.144-1.877-2.492-2.98C26.418 48.773 25 46.557 25 44.067c0-3.37 2.617-6.112 5.833-6.112h7.425c3.216 0 5.833 2.742 5.833 6.112s-2.617 6.112-5.833 6.112H32.5c-.049.504-.03 1.03.06 1.562l.267 1.597c.037.22-.203.378-.386.255l-1.333-.892" fill="#FF49DB"/><path d="M44.09 44.074c0-3.374-2.628-6.12-5.859-6.12h-7.458c-.84 0-1.64.188-2.364.523.311 5.066 4.566 9.023 9.636 9.023h5.04a6.275 6.275 0 0 0 1.006-3.426" fill="#FF16D1"/><path d="M46.165 48.351a7.245 7.245 0 0 0 .159-2.349h-7.11c-3.998 0-7.334-3.239-7.395-7.317-.062-4.152 3.23-7.549 7.285-7.549h9.19c4.007 0 7.34 3.257 7.387 7.344.036 3.067-1.746 5.806-4.522 6.967-.597 1.846-2.297 3.162-3.621 3.942l-1.364.804c-.188.11-.415-.061-.366-.277l.357-1.565" fill="#1FB6FF"/><path d="M37.854 40.79c-.062-4.189 3.274-7.616 7.384-7.616h8.398a7.466 7.466 0 0 0-5.12-2.038h-9.314c-4.11 0-7.446 3.428-7.383 7.617.062 4.115 3.443 7.383 7.495 7.383h.91a7.462 7.462 0 0 1-2.37-5.346" fill="#009EEB"/><path d="M67.074 29.773H55.88c-.487 0-.881-.41-.881-.917v-2.57c0-3.723 2.9-6.74 6.477-6.74 3.578 0 6.478 3.017 6.478 6.74v2.57c0 .506-.395.917-.881.917" fill="#FFD55F"/><path d="M23.437 65.227H12.244c-.486 0-.88-.41-.88-.916V61.74c0-3.722 2.9-6.74 6.477-6.74 3.577 0 6.477 3.018 6.477 6.74v2.57c0 .507-.394.917-.88.917" fill="#FF49DB"/><path d="M67.074 65.227H55.88c-.487 0-.881-.41-.881-.916V61.74c0-3.722 2.9-6.74 6.477-6.74 3.578 0 6.478 3.018 6.478 6.74v2.57c0 .507-.395.917-.881.917" fill="#1FB6FF"/><path d="M16.663 28.856v-2.57c0-2.805 1.753-5.21 4.246-6.224a7.014 7.014 0 0 0-2.65-.517c-3.808 0-6.895 3.018-6.895 6.74v2.571c0 .506.42.917.937.917h5.3a.927.927 0 0 1-.938-.917" fill="#13CE66"/><path d="M60.299 28.856v-2.57c0-2.805 1.753-5.21 4.246-6.224a7.014 7.014 0 0 0-2.65-.517c-3.808 0-6.895 3.018-6.895 6.74v2.571c0 .506.42.917.938.917h5.299a.927.927 0 0 1-.938-.917" fill="#F8B700"/><path d="M16.663 64.31v-2.57c0-2.805 1.753-5.209 4.246-6.224A7.012 7.012 0 0 0 18.26 55c-3.808 0-6.895 3.018-6.895 6.74v2.57c0 .507.42.917.937.917h5.3a.927.927 0 0 1-.938-.916" fill="#FF16D1"/><path d="M60.299 64.31v-2.57c0-2.805 1.753-5.209 4.246-6.224a7.012 7.012 0 0 0-2.65-.516C58.088 55 55 58.018 55 61.74v2.57c0 .507.42.917.938.917h5.299a.927.927 0 0 1-.938-.916" fill="#009EEB"/><path d="M18.523 23.636a4.437 4.437 0 0 1-4.432-4.431 4.437 4.437 0 0 1 4.432-4.432 4.437 4.437 0 0 1 4.432 4.432 4.437 4.437 0 0 1-4.432 4.431M61.477 23.636a4.437 4.437 0 0 1-4.432-4.431 4.437 4.437 0 0 1 4.432-4.432 4.437 4.437 0 0 1 4.432 4.432 4.437 4.437 0 0 1-4.432 4.431M18.523 59.773a4.437 4.437 0 0 1-4.432-4.432 4.437 4.437 0 0 1 4.432-4.432 4.437 4.437 0 0 1 4.432 4.432 4.437 4.437 0 0 1-4.432 4.432M61.477 59.773a4.437 4.437 0 0 1-4.432-4.432 4.437 4.437 0 0 1 4.432-4.432 4.437 4.437 0 0 1 4.432 4.432 4.437 4.437 0 0 1-4.432 4.432" fill="#F5C188"/><path d="M18.027 19.205c0-1.688.892-3.157 2.2-3.906a3.948 3.948 0 0 0-1.968-.526c-2.298 0-4.168 1.988-4.168 4.432 0 2.443 1.87 4.431 4.168 4.431.711 0 1.382-.19 1.968-.526-1.308-.749-2.2-2.218-2.2-3.905M60.982 19.205c0-1.688.891-3.157 2.2-3.906a3.949 3.949 0 0 0-1.969-.526c-2.298 0-4.168 1.988-4.168 4.432 0 2.443 1.87 4.431 4.168 4.431.712 0 1.382-.19 1.969-.526-1.309-.749-2.2-2.218-2.2-3.905M18.027 55.34c0-1.686.892-3.156 2.2-3.904a3.948 3.948 0 0 0-1.968-.527c-2.298 0-4.168 1.988-4.168 4.432 0 2.444 1.87 4.432 4.168 4.432.711 0 1.382-.191 1.968-.527-1.308-.748-2.2-2.218-2.2-3.905M60.982 55.34c0-1.686.891-3.156 2.2-3.904a3.949 3.949 0 0 0-1.969-.527c-2.298 0-4.168 1.988-4.168 4.432 0 2.444 1.87 4.432 4.168 4.432.712 0 1.382-.191 1.969-.527-1.309-.748-2.2-2.218-2.2-3.905" fill="#F0A563"/><path d="M25.258 16.136a.92.92 0 0 0 .47-.13 26.74 26.74 0 0 1 2.797-1.441.966.966 0 0 0 .488-1.26.932.932 0 0 0-1.234-.498 28.662 28.662 0 0 0-2.993 1.542.97.97 0 0 0-.34 1.31c.173.306.488.477.812.477M44.934 12.623c1.112.186 2.224.437 3.305.745.097.028.194.041.29.041.438 0 .843-.275.974-.7.16-.517-.147-1.062-.685-1.215a32.219 32.219 0 0 0-3.537-.798c-.552-.092-1.08.265-1.175.797-.096.532.275 1.038.828 1.13M38.271 12.045l.06-.001a29.4 29.4 0 0 1 1.713-.05h.003c.541 0 1.088.015 1.625.045a.996.996 0 1 0 .111-1.99A31.379 31.379 0 0 0 40.047 10h-.003c-.608 0-1.224.018-1.83.054a.998.998 0 0 0 .057 1.991M68.078 32.528c-.563.129-.91.673-.777 1.216.27 1.088.475 2.205.611 3.32.063.513.515.89 1.039.89.041 0 .082-.002.124-.006.574-.066.985-.567.918-1.12a30.003 30.003 0 0 0-.654-3.552c-.134-.543-.699-.878-1.261-.748M65.964 49.704a.894.894 0 0 0 .545 1.15.912.912 0 0 0 1.169-.537c.37-1.002.685-2.038.934-3.076a.898.898 0 0 0-.678-1.08.913.913 0 0 0-1.097.667c-.233.97-.526 1.938-.873 2.876M50.795 14.57c.955.421 1.897.905 2.8 1.438a.916.916 0 0 0 .467.128c.324 0 .64-.172.813-.48a.973.973 0 0 0-.345-1.312 28.535 28.535 0 0 0-2.995-1.538.928.928 0 0 0-1.231.503.97.97 0 0 0 .49 1.261M11.383 46.16a.898.898 0 0 0-.676 1.082c.25 1.04.564 2.074.935 3.076a.91.91 0 0 0 1.168.536.895.895 0 0 0 .544-1.152 25.443 25.443 0 0 1-.875-2.874.911.911 0 0 0-1.096-.667M31.471 13.41c.097 0 .196-.014.294-.042a30.2 30.2 0 0 1 3.304-.753c.553-.093.922-.599.824-1.128-.097-.53-.624-.884-1.178-.79-1.19.201-2.38.472-3.536.805-.538.155-.843.698-.681 1.213.132.422.536.694.973.694M69.07 39.318c-.515 0-.931.443-.931.99v.062c0 1.102-.06 2.212-.178 3.3-.06.543.307 1.033.817 1.096a.875.875 0 0 0 .108.007c.466 0 .869-.372.923-.876.127-1.163.191-2.35.191-3.527v-.063c0-.546-.417-.989-.93-.989M44.959 67.29a25.762 25.762 0 0 1-3.331.438c-.554.037-.976.574-.944 1.2.03.605.473 1.072 1 1.072.02 0 .04 0 .06-.002a27.53 27.53 0 0 0 3.562-.469c.546-.108.911-.698.815-1.316-.096-.618-.616-1.032-1.162-.923M38.371 67.725a25.736 25.736 0 0 1-3.33-.435c-.548-.108-1.067.306-1.162.926-.095.62.27 1.209.816 1.317a27.531 27.531 0 0 0 3.62.467c.529 0 .971-.468 1.002-1.074.03-.628-.392-1.166-.946-1.201M31.85 67.22a23.567 23.567 0 0 1-2.854-1.223c-.46-.234-.996.016-1.194.56-.2.543.014 1.174.475 1.408.992.504 2.02.944 3.054 1.308.087.03.174.045.26.045.392 0 .753-.3.87-.765.144-.567-.13-1.164-.61-1.333M11.614 37.948c.04.004.081.007.121.007.528 0 .983-.38 1.044-.895.133-1.114.335-2.23.602-3.32.133-.542-.218-1.085-.783-1.213-.566-.128-1.132.209-1.265.752a29.903 29.903 0 0 0-.644 3.552c-.066.553.348 1.054.925 1.117" fill="#0A090B"/><g transform="translate(10 39.318)"><mask id="b" fill="#fff"><use xlink:href="#a"/></mask><path d="M40.863 26.847c-.988.432-2.013.809-3.043 1.12a.982.982 0 0 0 .278 1.92.965.965 0 0 0 .278-.042 29.504 29.504 0 0 0 3.257-1.2.984.984 0 0 0 .506-1.288.966.966 0 0 0-1.276-.51M1.278 5.375a.978.978 0 0 0 .851-1.087 28.89 28.89 0 0 1-.189-3.27A.975.975 0 0 0 .97.04H.97c-.536 0-.97.44-.969.98.001 1.167.07 2.343.202 3.495a.974.974 0 0 0 1.076.86" fill="#0A090B" mask="url(#b)"/></g><path d="M18.464 15.823c1.908 0 3.46 1.501 3.46 3.347s-1.552 3.347-3.46 3.347-3.46-1.501-3.46-3.347 1.552-3.347 3.46-3.347zM12.79 30.455h11.464c1.163 0 2.109-.916 2.109-2.04v-2.313c0-.768-.13-1.523-.384-2.244a.903.903 0 0 0-1.136-.54.86.86 0 0 0-.558 1.1c.19.54.287 1.107.287 1.684v2.313c0 .17-.143.308-.318.308H12.79a.314.314 0 0 1-.319-.308v-2.313c0-1.49.661-2.9 1.795-3.883a5.307 5.307 0 0 0 4.197 2.03c2.895 0 5.25-2.279 5.25-5.08 0-2.8-2.355-5.078-5.25-5.078s-5.251 2.278-5.251 5.079c0 .51.079 1 .224 1.465-1.732 1.313-2.755 3.329-2.755 5.467v2.313c0 1.124.946 2.04 2.109 2.04zM61.418 15.823c1.909 0 3.461 1.501 3.461 3.347s-1.552 3.347-3.46 3.347c-1.909 0-3.461-1.501-3.461-3.347s1.552-3.347 3.46-3.347zm-7.782 10.28v2.312c0 1.124.946 2.04 2.11 2.04h11.463c1.163 0 2.11-.916 2.11-2.04v-2.313c0-.768-.13-1.523-.384-2.244a.903.903 0 0 0-1.136-.54.86.86 0 0 0-.559 1.1c.191.54.288 1.107.288 1.684v2.313c0 .17-.143.308-.319.308H55.745a.314.314 0 0 1-.318-.308v-2.313c0-1.49.66-2.9 1.794-3.883a5.307 5.307 0 0 0 4.197 2.03c2.896 0 5.251-2.279 5.251-5.08 0-2.8-2.355-5.078-5.25-5.078-2.896 0-5.252 2.278-5.252 5.079 0 .51.08 1 .224 1.465-1.731 1.313-2.755 3.329-2.755 5.467zM61.418 51.277c1.909 0 3.461 1.502 3.461 3.347 0 1.846-1.552 3.348-3.46 3.348-1.909 0-3.461-1.502-3.461-3.348 0-1.845 1.552-3.347 3.46-3.347zm6.38 7.496a.86.86 0 0 0-.557 1.1c.19.54.287 1.106.287 1.684v2.312c0 .17-.143.308-.319.308H55.745a.314.314 0 0 1-.318-.308v-2.312c0-1.49.66-2.9 1.794-3.884a5.307 5.307 0 0 0 4.197 2.03c2.896 0 5.251-2.278 5.251-5.079 0-2.8-2.355-5.079-5.25-5.079-2.896 0-5.252 2.279-5.252 5.08 0 .509.08 1 .224 1.465-1.731 1.312-2.755 3.328-2.755 5.467v2.312c0 1.125.946 2.04 2.11 2.04h11.463c1.163 0 2.11-.915 2.11-2.04v-2.312c0-.768-.13-1.523-.384-2.244a.903.903 0 0 0-1.136-.54zM18.464 51.277c1.908 0 3.46 1.502 3.46 3.347 0 1.846-1.552 3.348-3.46 3.348s-3.46-1.502-3.46-3.348c0-1.845 1.552-3.347 3.46-3.347zm6.38 7.496a.86.86 0 0 0-.558 1.1c.19.54.287 1.106.287 1.684v2.312c0 .17-.142.308-.318.308H12.79a.314.314 0 0 1-.319-.308v-2.312c0-1.49.661-2.9 1.795-3.884a5.307 5.307 0 0 0 4.197 2.03c2.895 0 5.25-2.278 5.25-5.079 0-2.8-2.355-5.079-5.25-5.079-2.896 0-5.251 2.279-5.251 5.08 0 .509.079 1 .224 1.465-1.732 1.312-2.755 3.328-2.755 5.467v2.312c0 1.125.946 2.04 2.109 2.04h11.464c1.163 0 2.109-.915 2.109-2.04v-2.312c0-.768-.13-1.523-.384-2.244a.903.903 0 0 0-1.136-.54zM50.69 44.51a.859.859 0 0 0-.496.533c-.486 1.537-1.968 2.681-3.19 3.396.21-.915.268-1.81.171-2.676a.873.873 0 0 0-.862-.785h-7.222a6.2 6.2 0 0 1-2.35-.461.855.855 0 0 0-.934.188l-.013.013a.876.876 0 0 0 .289 1.422c.93.382 1.945.592 3.008.592h3.07c-.85 1.41-2.346 2.35-4.048 2.35h-5.69a.869.869 0 0 0-.862.774c-.066.6-.046 1.215.06 1.842-.843-.562-1.741-1.375-2.071-2.415a.903.903 0 0 0-.499-.567c-1.822-.772-2.999-2.604-2.999-4.667 0-2.775 2.149-5.032 4.79-5.032h.216c.046.917.244 1.794.568 2.607a.856.856 0 0 0 1.42.282.878.878 0 0 0 .188-.942 6.41 6.41 0 0 1-.451-2.513c.075-3.485 2.952-6.242 6.397-6.242h9.033c3.482 0 6.427 2.882 6.416 6.405-.008 2.603-1.552 4.916-3.939 5.896zm-2.37-14.055H39.09c-3.987 0-7.305 2.95-7.935 6.807h-.315c-3.597 0-6.523 3.045-6.523 6.787 0 2.636 1.443 4.998 3.708 6.123 1.113 2.728 4.586 4.036 4.74 4.093a.854.854 0 0 0 .934-.228.885.885 0 0 0 .153-.959c-.35-.778-.545-1.529-.587-2.242h4.847c2.681 0 4.989-1.692 5.99-4.103h1.381c-.024.96-.282 1.976-.77 3.029-.148.32-.092.7.143.961a.863.863 0 0 0 .931.239c.193-.07 4.57-1.666 5.914-4.984 2.845-1.331 4.662-4.188 4.662-7.384 0-4.488-3.609-8.14-8.045-8.14z" fill="#0A090B"/></g></svg>