<svg width="80" height="80" xmlns="http://www.w3.org/2000/svg" xmlns:xlink="http://www.w3.org/1999/xlink"><defs><path id="a" d="M30.003.062H.007v57.623H60V.062z"/></defs><g fill="none" fill-rule="evenodd"><path d="M36.181 59H17.28c-1.535 0-2.78 1.344-2.78 3.002v2.248H40v-1.127C40 60.846 38.29 59 36.181 59" fill="#BE5736"/><path d="M35.57 59H31c2.032 0 3.68 1.846 3.68 4.123v1.127h4.57v-1.127c0-2.277-1.647-4.123-3.68-4.123" fill="#9C4831"/><path d="M40.765 63.5h-27.78a2.243 2.243 0 0 0-2.235 2.25c0 1.243 1 2.25 2.235 2.25h27.78A2.243 2.243 0 0 0 43 65.75c0-1.243-1-2.25-2.235-2.25" fill="#9C4831"/><path d="M40.883 63.5H38.5V68h2.383C42.053 68 43 66.993 43 65.75s-.948-2.25-2.117-2.25" fill="#8D3E2E"/><path d="M68.246 66.996a3.428 3.428 0 0 1-4.918-.07L31 32.68l2.931-2.931 34.244 32.328a3.428 3.428 0 0 1 .07 4.918" fill="#9C4831"/><path fill="#9C4831" d="M28.951 20.417L21.667 27.7l-4.917 7.503L25.546 44l7.503-4.917 7.284-7.284 4.917-7.503-8.796-8.796-7.503 4.917"/><path d="M29.744 45.513l-1.73 1.731a1.727 1.727 0 0 1-2.443 0L13.506 35.18a1.727 1.727 0 0 1 0-2.442l1.73-1.731a1.727 1.727 0 0 1 2.443 0L29.744 43.07a1.727 1.727 0 0 1 0 2.442M48.494 26.763l-1.73 1.731a1.727 1.727 0 0 1-2.443 0L32.256 16.43a1.727 1.727 0 0 1 0-2.442l1.73-1.731a1.727 1.727 0 0 1 2.443 0L48.494 24.32a1.727 1.727 0 0 1 0 2.442" fill="#BE5736"/><path fill="#FFC82C" d="M21.25 27.317L28.566 20 40 31.433l-7.317 7.317L21.25 27.317"/><path fill="#F8B700" d="M28.407 20L40 31.593 36.593 35 25 23.407 28.407 20"/><path d="M43.15 38.497L39.747 41.9a2.049 2.049 0 0 1-2.897-2.897l3.403-3.403a2.049 2.049 0 0 1 2.897 2.897" fill="#BE5736"/><g transform="translate(10 11)"><mask id="b" fill="#fff"><use xlink:href="#a"/></mask><path d="M33.611 25.067a2.093 2.093 0 0 0-2.948 0l-1.865 1.855 2.948 2.932 1.865-1.855a2.065 2.065 0 0 0 0-2.932" fill="#9C4831" mask="url(#b)"/><path d="M30.826 55.937H3.11a1.35 1.35 0 0 1-1.352-1.343c0-.741.607-1.344 1.352-1.344H7.58a.876.876 0 0 0 .879-.874.876.876 0 0 0-.88-.874H5.185v-.188c0-1.032.845-1.871 1.882-1.871h18.771c1.314 0 2.427.869 2.79 2.059H11.668a.876.876 0 0 0-.878.874c0 .482.393.874.878.874h19.157a1.35 1.35 0 0 1 1.352 1.344 1.35 1.35 0 0 1-1.352 1.343zm0-4.435h-.395a4.67 4.67 0 0 0-4.594-3.807H7.067c-2.007 0-3.64 1.624-3.64 3.62v.187h-.318C1.395 51.502 0 52.89 0 54.594c0 1.704 1.395 3.09 3.109 3.09h27.717c1.715 0 3.11-1.386 3.11-3.09 0-1.705-1.395-3.092-3.11-3.092zM29.532 30.82l-.01.01c-.472.463-1.232.461-1.7-.005a1.196 1.196 0 0 1 0-1.696l3.462-3.444c.235-.233.544-.35.853-.35a1.196 1.196 0 0 1 .858 2.041l-.01.01-3.453 3.434zm-3.54-5.017l1.948-1.936 1.383 1.298-2.025 2.013-1.306-1.375zm-3.283.793L12.591 16.534l6.028-5.994 10.118 10.062-6.028 5.994zm-4.233 2.95l-8.851-8.802 1.866-2.832 9.833 9.778-2.848 1.856zm.243 3.857l-1.696 1.687a.81.81 0 0 1-.575.237.81.81 0 0 1-.575-.237L4.05 23.333a.806.806 0 0 1 0-1.144l1.696-1.687a.81.81 0 0 1 .575-.237.81.81 0 0 1 .575.237c.001.002-.002-.001 0 0L18.719 32.26a.806.806 0 0 1 0 1.143zM22.853 7.59l8.85 8.802-1.866 2.832-9.833-9.778 2.849-1.856zm-.244-3.857l1.697-1.687a.81.81 0 0 1 .575-.237.81.81 0 0 1 .575.237l11.823 11.757a.801.801 0 0 1 0 1.143l-1.697 1.688a.817.817 0 0 1-1.15 0l-.98-.974c0-.002-.002-.004-.004-.005l-9.855-9.8-.003-.003-.98-.976a.801.801 0 0 1 0-1.143zm36.042 46.562l-3.554-3.337a.882.882 0 0 0-1.243.036.87.87 0 0 0 .036 1.235l3.555 3.337c.504.473.787 1.114.797 1.804.01.69-.254 1.338-.745 1.826a2.526 2.526 0 0 1-1.836.74 2.531 2.531 0 0 1-1.814-.792L31.368 31.466l2.266-2.254L50.9 45.422a.878.878 0 0 0 1.243-.036.87.87 0 0 0-.036-1.236L34.774 27.88a2.94 2.94 0 0 0-.541-3.43 2.982 2.982 0 0 0-3.598-.456l-1.452-1.363 1.418-1.41a.874.874 0 0 0 .115-.141l2.257-3.425.217.216a2.57 2.57 0 0 0 1.817.747 2.57 2.57 0 0 0 1.818-.747l1.696-1.687a2.55 2.55 0 0 0 0-3.615L26.698.81a2.56 2.56 0 0 0-1.817-.748 2.56 2.56 0 0 0-1.818.748l-1.696 1.687a2.532 2.532 0 0 0-.753 1.808c0 .682.267 1.324.753 1.807l.216.216-3.444 2.244a.88.88 0 0 0-.141.114h-.001l-7.27 7.23a.878.878 0 0 0-.115.142l-2.257 3.424-.217-.215a2.56 2.56 0 0 0-1.817-.75c-.687 0-1.332.267-1.818.75l-1.696 1.687a2.55 2.55 0 0 0 0 3.615L14.63 36.326a2.56 2.56 0 0 0 1.818.749 2.56 2.56 0 0 0 1.817-.75l1.697-1.686a2.532 2.532 0 0 0 .753-1.808c0-.683-.268-1.324-.753-1.807l-.217-.216 3.445-2.245a.883.883 0 0 0 .14-.113l1.419-1.41 1.37 1.443a2.94 2.94 0 0 0 .46 3.578 2.982 2.982 0 0 0 3.448.538l22.541 23.744a4.28 4.28 0 0 0 3.131 1.342 4.28 4.28 0 0 0 3.04-1.254A4.232 4.232 0 0 0 60 53.345a4.232 4.232 0 0 0-1.348-3.05z" fill="#0A090B" mask="url(#b)"/></g></g></svg>