<svg width="80" height="80" xmlns="http://www.w3.org/2000/svg"><g fill="none" fill-rule="evenodd"><path d="M58.892 10.879H21.858a4.908 4.908 0 0 0-4.908 4.908v48.426a4.908 4.908 0 0 0 4.908 4.908h37.034a4.908 4.908 0 0 0 4.908-4.908V15.787a4.908 4.908 0 0 0-4.908-4.908z" fill="#506366"/><path d="M23.98 64.213V15.787a4.908 4.908 0 0 1 4.909-4.908h-7.031a4.908 4.908 0 0 0-4.909 4.908v48.426a4.908 4.908 0 0 0 4.909 4.908h7.03a4.908 4.908 0 0 1-4.907-4.908z" fill="#3A484A"/><path d="M21.858 32.007a.785.785 0 0 1-.785-.784V15.787c0-.432.352-.784.785-.784h37.034c.433 0 .785.352.785.784v15.436a.785.785 0 0 1-.785.784H21.858z" fill="#13CE66"/><path d="M58.013 35.462H44.748c-.918 0-1.663.745-1.663 1.664v9.516c0 .918.745 1.663 1.663 1.663h13.265c.919 0 1.664-.745 1.664-1.663v-9.516c0-.919-.745-1.664-1.664-1.664zM36.002 35.462H22.737c-.92 0-1.664.745-1.664 1.664v9.516c0 .918.745 1.663 1.664 1.663h13.265c.918 0 1.663-.745 1.663-1.663v-9.516c0-.919-.745-1.664-1.663-1.664zM58.013 52.39H44.748c-.918 0-1.663.744-1.663 1.663v9.516c0 .919.745 1.663 1.663 1.663h13.265c.919 0 1.664-.744 1.664-1.663v-9.516c0-.919-.745-1.663-1.664-1.663zM36.002 52.39H22.737c-.92 0-1.664.744-1.664 1.663v9.516c0 .919.745 1.663 1.664 1.663h13.265c.918 0 1.663-.744 1.663-1.663v-9.516c0-.919-.745-1.663-1.663-1.663z" fill="#B8B8B8"/><path d="M21.858 15.003a.785.785 0 0 0-.785.784v15.436c0 .432.352.784.785.784h2.123v-16.22c0-.267.022-.529.063-.784h-2.186z" fill="#46926F"/><path d="M22.737 35.462c-.92 0-1.664.745-1.664 1.664v9.516c0 .918.745 1.663 1.664 1.663h1.244V35.462h-1.244zM23.98 52.39h-1.243c-.92 0-1.664.744-1.664 1.663v9.516c0 .919.745 1.663 1.664 1.663h1.35a4.926 4.926 0 0 1-.106-1.019V52.39z" fill="#999"/><g fill="#000"><path d="M58.892 10H21.858a5.793 5.793 0 0 0-5.787 5.787v48.426A5.794 5.794 0 0 0 21.858 70h29.127a.879.879 0 0 0 0-1.758H21.858a4.034 4.034 0 0 1-4.03-4.03V15.788a4.034 4.034 0 0 1 4.03-4.03h37.034a4.034 4.034 0 0 1 4.03 4.03v48.426a4.034 4.034 0 0 1-4.03 4.03h-4.391a.879.879 0 0 0 0 1.757h4.391a5.794 5.794 0 0 0 5.787-5.787V15.787A5.793 5.793 0 0 0 58.892 10z"/><path d="M60.556 31.223V15.787c0-.917-.747-1.663-1.663-1.663H30.711a.879.879 0 0 0 0 1.758h28.086v15.246H21.952V15.882h5.244a.879.879 0 0 0 0-1.758h-5.338c-.917 0-1.664.746-1.664 1.663v15.436c0 .917.747 1.663 1.664 1.663h37.034c.917 0 1.664-.746 1.664-1.663z"/><path d="M58.013 34.583H44.748a2.545 2.545 0 0 0-2.542 2.543v9.516a2.545 2.545 0 0 0 2.542 2.542h13.265a2.545 2.545 0 0 0 2.543-2.542v-9.516a2.545 2.545 0 0 0-2.543-2.543zm.785 12.059a.785.785 0 0 1-.785.784H44.748a.785.785 0 0 1-.784-.784v-9.516c0-.433.352-.785.784-.785h13.265c.433 0 .785.352.785.785v9.516zM38.544 37.126a2.545 2.545 0 0 0-2.542-2.543H22.737a2.545 2.545 0 0 0-2.543 2.543v9.516a2.545 2.545 0 0 0 2.543 2.542h13.265a2.545 2.545 0 0 0 2.542-2.542v-9.516zm-1.758 9.516a.785.785 0 0 1-.784.784H22.737a.785.785 0 0 1-.785-.784v-9.516c0-.433.352-.785.785-.785h13.265c.432 0 .784.352.784.785v9.516zM44.748 66.111h13.265a2.545 2.545 0 0 0 2.543-2.542v-9.516a2.545 2.545 0 0 0-2.543-2.542H44.748a2.545 2.545 0 0 0-2.542 2.542v9.516a2.545 2.545 0 0 0 2.542 2.542zm-.784-12.058c0-.433.352-.784.784-.784h13.265c.433 0 .785.351.785.784v9.516a.785.785 0 0 1-.785.785H44.748a.785.785 0 0 1-.784-.785v-9.516zM36.002 51.51H22.737a2.545 2.545 0 0 0-2.543 2.543v9.516a2.545 2.545 0 0 0 2.543 2.542h13.265a2.545 2.545 0 0 0 2.542-2.542v-9.516a2.545 2.545 0 0 0-2.542-2.542zm.784 12.059a.785.785 0 0 1-.784.784H22.737a.785.785 0 0 1-.785-.784v-9.516c0-.433.352-.785.785-.785h13.265c.432 0 .784.352.784.785v9.516z" fill-rule="nonzero"/><path d="M31.987 24.27v-1.678a.879.879 0 1 0-1.758 0v1.677a.879.879 0 0 0 1.758 0zM50.521 24.27v-1.678a.879.879 0 1 0-1.758 0v1.677a.879.879 0 0 0 1.758 0zM40.375 26.043c1.145 0 2.22-.478 2.949-1.312a.879.879 0 0 0-1.323-1.157 2.147 2.147 0 0 1-1.626.712c-.638 0-1.23-.26-1.626-.712a.879.879 0 1 0-1.323 1.157 3.904 3.904 0 0 0 2.949 1.312zM32 40.836h-1.583v-1.583c0-.396-.413-.792-1.04-.792-.593 0-1.055.396-1.055.792v1.583h-1.6c-.462 0-.776.462-.776 1.056 0 .627.314 1.04.776 1.04h1.6v1.6c0 .461.462.775 1.055.775.627 0 1.04-.314 1.04-.776v-1.6H32c.396 0 .792-.412.792-1.039 0-.594-.396-1.056-.792-1.056zM30.845 58.798l1.12-1.12c.28-.28.268-.852-.175-1.295-.42-.42-1.027-.466-1.307-.187l-1.12 1.12-1.119-1.12c-.28-.28-.851-.268-1.295.175-.42.42-.466 1.027-.186 1.307l1.12 1.12-1.132 1.13c-.326.328-.221.876.198 1.296.444.443.957.513 1.283.186l1.132-1.131 1.131 1.131c.327.327.875.222 1.295-.198.443-.443.513-.957.187-1.283l-1.132-1.131zM53.517 40.836h-4.289c-.462 0-.775.462-.775 1.056 0 .627.313 1.04.775 1.04h4.289c.396 0 .792-.413.792-1.04 0-.594-.396-1.056-.792-1.056zM49.228 61.533h4.289c.396 0 .792-.413.792-1.04 0-.593-.396-1.055-.792-1.055h-4.289c-.462 0-.775.462-.775 1.055 0 .627.313 1.04.775 1.04zM49.228 58.184h4.289c.396 0 .792-.412.792-1.039 0-.594-.396-1.056-.792-1.056h-4.289c-.462 0-.775.462-.775 1.056 0 .627.313 1.04.775 1.04z"/></g></g></svg>