<svg width="80" height="80" xmlns="http://www.w3.org/2000/svg"><g fill-rule="nonzero" fill="none"><path d="M55.833 26.934h-7.541v-12.34a3.77 3.77 0 1 1 7.54 0v12.34z" fill="#F50057"/><path d="M52.452 63.25H23.689a5.61 5.61 0 0 1-5.61-5.61V32.986L38.07 15.013l19.991 17.972V57.64a5.61 5.61 0 0 1-5.61 5.61z" fill="#FFD55F"/><path d="M57.992 37.683L38.07 19.63 18.148 37.683a4.384 4.384 0 1 1-5.888-6.498l19.974-18.1a8.662 8.662 0 0 1 11.672 0l19.974 18.1a4.385 4.385 0 0 1 .305 6.193c-.866.955-3.711 2.342-6.193.305z" fill="#F50057"/><path d="M42.168 41.97h-8.196a4.157 4.157 0 0 0-4.156 4.156V63.25h16.509V46.126a4.157 4.157 0 0 0-4.157-4.157z" fill="#FF7849"/><path d="M64.432 30.576L49.114 16.695v-2.1a2.952 2.952 0 0 1 2.948-2.949 2.952 2.952 0 0 1 2.949 2.948v5.329a.822.822 0 1 0 1.644 0v-5.329a4.598 4.598 0 0 0-4.593-4.593c-4.846 0-4.592 5.203-4.592 5.203l-3.011-2.729a9.481 9.481 0 0 0-12.777 0l-19.974 18.1a5.213 5.213 0 0 0-.362 7.356c1.026 1.132 2.94 2.36 5.91 1.288V57.64a6.439 6.439 0 0 0 6.433 6.432h28.763a6.439 6.439 0 0 0 6.432-6.432V39.17c2.444 1.004 4.94-.169 5.91-1.24a5.213 5.213 0 0 0-.362-7.354zm-.856 6.25c-.582.642-2.95 1.94-5.047.233L38.622 19.02a.822.822 0 0 0-1.104 0l-8.301 7.523a.823.823 0 0 0 1.104 1.219l7.75-7.022 19.168 17.37v19.53a4.793 4.793 0 0 1-4.787 4.788H30.638V46.126a3.338 3.338 0 0 1 3.334-3.334h8.196a3.338 3.338 0 0 1 3.334 3.334V59.79a.822.822 0 1 0 1.645 0V46.126a4.985 4.985 0 0 0-4.98-4.98h-8.195a4.985 4.985 0 0 0-4.979 4.98v16.302H23.69A4.793 4.793 0 0 1 18.9 57.64V38.11l8.64-7.83a.822.822 0 1 0-1.104-1.22l-8.84 8.012a3.566 3.566 0 0 1-5.032-.247 3.566 3.566 0 0 1 .247-5.032l19.974-18.1a7.842 7.842 0 0 1 10.568 0l19.974 18.1a3.566 3.566 0 0 1 .248 5.032z" fill="#000"/><path d="M68.367 57.77c0 6.431-5.214 11.645-11.645 11.645-6.431 0-11.645-5.214-11.645-11.645 0-6.431 5.214-11.645 11.645-11.645 6.431 0 11.645 5.214 11.645 11.645z" stroke="#000" stroke-width="2" fill="#1FB6FF"/><path d="M62.076 55.91H58.58v-3.494a1.86 1.86 0 1 0-3.719 0v3.494h-3.494a1.86 1.86 0 0 0 0 3.72h3.494v3.494a1.86 1.86 0 0 0 3.719 0V59.63h3.495a1.86 1.86 0 0 0 0-3.72z" fill="#FFF"/><path d="M64.645 56.684a.93.93 0 0 0-1.218-.494c-.473.2-.649.729-.494 1.218.309.981-.345 1.292-.857 1.292H58.58a.93.93 0 0 0-.93.93v3.494a.93.93 0 0 1-1.859 0V59.63a.93.93 0 0 0-.93-.93h-3.494a.93.93 0 0 1 0-1.86h3.494a.93.93 0 0 0 .93-.93v-3.494a.93.93 0 0 1 1.86 0v3.494c0 .514.416.93.929.93h1.53a.93.93 0 0 0 0-1.86h-.6v-2.564a2.792 2.792 0 0 0-2.79-2.789 2.792 2.792 0 0 0-2.788 2.79v2.564h-2.565a2.792 2.792 0 0 0-2.789 2.79 2.792 2.792 0 0 0 2.789 2.788h2.565v2.565a2.792 2.792 0 0 0 2.789 2.789 2.792 2.792 0 0 0 2.788-2.79V60.56h2.566a2.792 2.792 0 0 0 2.57-3.875z" fill="#000"/></g></svg>