<svg width="80" height="80" xmlns="http://www.w3.org/2000/svg" xmlns:xlink="http://www.w3.org/1999/xlink"><defs><path id="a" d="M.009.072v58.415h59.933V.072H.009z"/></defs><g fill="none" fill-rule="evenodd"><path d="M41.22 64.074c1.905 0 3.298-.323 5.103-.628 1.226-.207-1.537 4.913 4.082 4.534 5.619-.379 2.358-5.965 3.471-6.452 4.704-2.057 8.405-5.254 10.23-9.201.47-1.02 5.048-1.368 5.137-2.568.079-1.058-.517-2.963-.517-3.972 0-.459-.019-.52 0-1.03.01-.233-.846-1.103-1.769-1.44-.955-.348-2.852-.664-2.852-1.22 0-8.938-10.937-14.597-22.886-14.597-5.233 0-11.041.957-14.964 3.17-5.896 3.327-8.755 9.052-8.755 15.117 0 6.036 3.793 11.39 9.642 14.72 1.203.685-2.144 7.207 3.646 7.473s2.845-4.825 4.246-4.534a30.43 30.43 0 0 0 6.185.628z" fill="#FF7CE5"/><path d="M55.462 38.75c2.644 0 4.787-2.876 4.787-6.423S60.35 26 57.706 26s-7.956 2.78-7.956 6.327 3.068 6.423 5.712 6.423z" fill="#FF49DB"/><path d="M31.147 32.828c-4.42-2.721-6.431-8.14-4.875-13.127 1.556-4.988 6.278-8.26 11.443-7.928 5.164.333 9.438 4.183 10.356 9.33.918 5.148-1.758 10.264-6.483 12.397l-10.441-.672z" fill="#FFC82C"/><g transform="translate(10 11)"><mask id="b" fill="#fff"><use xlink:href="#a"/></mask><path d="M49.464 30.98a.87.87 0 0 0-.872.868c0 .607-.498 1.101-1.108 1.101-.61 0-1.108-.494-1.108-1.101a.87.87 0 0 0-.872-.867.87.87 0 0 0-.873.867 2.848 2.848 0 0 0 2.853 2.836 2.848 2.848 0 0 0 2.852-2.836.87.87 0 0 0-.872-.867z" fill="#000" mask="url(#b)"/><path d="M57.652 31.122l-2.456-.782c-.314-.1-.561-.35-.662-.668a15.704 15.704 0 0 0-2.321-4.565 16.76 16.76 0 0 0-1.55-1.819c.362-1.58.558-3.368.533-4.913-.036-2.21-.48-3.507-1.358-3.963-.472-.247-1.91-.995-9.691 2.547a2.83 2.83 0 0 0-.516.305c-.525-.14-1.061-.27-1.6-.386l-.198-.04c.63-1.37.999-2.858 1.068-4.394a.868.868 0 0 0-.832-.905.87.87 0 0 0-.91.828 10.052 10.052 0 0 1-2.967 6.69 10.106 10.106 0 0 1-3.675 2.334 25.43 25.43 0 0 0-7.021 0 10.11 10.11 0 0 1-3.675-2.334 10.009 10.009 0 0 1-2.976-7.146c0-2.699 1.057-5.236 2.976-7.144a10.123 10.123 0 0 1 7.186-2.96c2.714 0 5.266 1.05 7.185 2.96a10.083 10.083 0 0 1 1.894 2.6c.217.428.742.6 1.172.385a.864.864 0 0 0 .387-1.165 11.842 11.842 0 0 0-2.219-3.048 11.863 11.863 0 0 0-8.42-3.467c-3.18 0-6.17 1.231-8.418 3.467a11.73 11.73 0 0 0-3.488 8.372c0 3.163 1.239 6.136 3.488 8.372a11.87 11.87 0 0 0 2.1 1.665h.001c-.542.14-1.08.298-1.613.475a.866.866 0 0 0-.55 1.097c.152.455.646.7 1.103.548a23.539 23.539 0 0 1 14.756 0 .873.873 0 0 0 1.104-.548.866.866 0 0 0-.552-1.097 25.011 25.011 0 0 0-1.612-.475 11.87 11.87 0 0 0 3.621-3.52 32.904 32.904 0 0 1 1.649.362c-.01.038-.02.075-.028.113-.425 2.008-.398 3.784.082 5.278.432 1.342 1.21 2.43 2.313 3.234 1.302.946 2.872 1.354 4.295 1.354 1.07 0 2.057-.231 2.782-.64.82-.461 1.507-1.435 2.05-2.895a13.97 13.97 0 0 1 2.78 4.96c.271.854.942 1.526 1.796 1.798l2.455.783a1.537 1.537 0 0 1 1.077 1.467v4.048c0 .673-.433 1.263-1.077 1.468l-3.956 1.26a2.691 2.691 0 0 0-1.508 1.218c-1.554 2.67-3.997 4.881-7.263 6.57a1.36 1.36 0 0 0-.717.957l-1.267 6.671a.393.393 0 0 1-.385.318h-4.12a.392.392 0 0 1-.385-.318l-.701-3.686a1.37 1.37 0 0 0-1.559-1.097 36.625 36.625 0 0 1-5.434.403c-1.363 0-2.708-.076-3.999-.226a1.381 1.381 0 0 0-1.511 1.103l-.667 3.503a.393.393 0 0 1-.385.318h-4.12a.393.393 0 0 1-.385-.32l-1.22-6.301a1.361 1.361 0 0 0-.704-.947c-5.566-2.955-8.508-7.892-8.508-14.276 0-3.226.71-6.078 2.11-8.478 1.306-2.24 3.213-4.092 5.67-5.505a.865.865 0 0 0 .317-1.185.876.876 0 0 0-1.191-.317c-4.763 2.74-7.635 6.967-8.426 12.335l-.252-.024a4.306 4.306 0 0 0-.32-1.73c-.505-1.252-1.545-2.154-2.648-2.301-.869-.115-1.696.251-2.27 1.006C.484 29.802.619 30.667.879 31.2c.44.9 1.57 1.537 3.443 1.937a3.531 3.531 0 0 1-.17.232C3.045 34.75 1.74 35.056.893 35.085A.913.913 0 0 0 0 35.99v.004a.91.91 0 0 0 .875.906c.063.003.128.004.196.004 1.072 0 2.793-.393 4.445-2.453.262-.326.474-.669.638-1.024.164.018.322.034.474.049v-.001c-.03.47-.046.947-.046 1.432 0 3.613.866 6.833 2.573 9.573 1.575 2.526 3.83 4.595 6.704 6.15l1.185 6.126a2.136 2.136 0 0 0 2.1 1.73h4.12a2.135 2.135 0 0 0 2.098-1.73l.603-3.168c1.253.132 2.549.2 3.86.2 1.798 0 3.594-.126 5.344-.371l.636 3.34a2.136 2.136 0 0 0 2.1 1.729h4.119a2.136 2.136 0 0 0 2.1-1.73l1.233-6.495c3.485-1.833 6.112-4.24 7.809-7.157a.953.953 0 0 1 .53-.435l3.956-1.26a3.269 3.269 0 0 0 2.29-3.12v-4.048c0-1.43-.92-2.684-2.29-3.12zm-8.332-10.31c-.336 2.855-1.236 5.298-2.14 5.808-1.03.58-3.404.691-5.187-.606-1.786-1.298-2.38-3.633-1.719-6.753.066-.313.29-.585.599-.725 4.367-1.988 6.885-2.638 7.82-2.638.142 0 .247.015.316.042.282.298.65 1.99.311 4.872zM2.45 30.443c-.09-.185.122-.51.257-.688.214-.28.411-.339.56-.339a.71.71 0 0 1 .089.006c.4.054.962.493 1.26 1.229.07.173.161.46.183.818-1.208-.25-2.146-.608-2.35-1.026z" fill="#000" mask="url(#b)"/></g><path d="M38.014 21.614v-3.156c1.052.078 1.443.576 1.804.576.45 0 .661-.591.661-.887 0-.762-1.443-1.088-2.465-1.12v-.42c0-.186-.226-.357-.451-.357-.256 0-.436.171-.436.358v.45c-1.428.156-2.856.933-2.856 2.893 0 1.99 1.503 2.55 2.856 3.047v3.654c-1.534-.125-1.94-1.213-2.436-1.213-.376 0-.691.513-.691.887 0 .761 1.262 1.803 3.127 1.834v.482c0 .187.18.358.436.358.225 0 .451-.171.451-.358v-.529c1.623-.232 2.736-1.29 2.736-3.203 0-2.114-1.428-2.798-2.736-3.296zm-.797-.295c-.797-.311-1.443-.638-1.443-1.524 0-.808.601-1.197 1.443-1.306v2.83zm.706 5.302V23.34c.737.326 1.323.762 1.323 1.741 0 .887-.51 1.385-1.323 1.54z" fill="#000"/></g></svg>