<svg width="80" height="80" xmlns="http://www.w3.org/2000/svg" xmlns:xlink="http://www.w3.org/1999/xlink"><defs><path id="a" d="M.01 58.824h58.814V.006H.009z"/></defs><g fill="none" fill-rule="evenodd"><path d="M57.447 54.892a23.762 23.762 0 0 0 5.744-15.48c0-13.112-10.667-23.78-23.78-23.78-13.111 0-23.779 10.668-23.779 23.78 0 13.112 10.668 23.78 23.78 23.78 5.673 0 11.17-2.04 15.48-5.745a.938.938 0 0 1 1.31.087c.461-.427.905-.871 1.332-1.331a.938.938 0 0 1-.087-1.311zM38.473 18.448a.939.939 0 0 1 1.877 0v3.755a.939.939 0 0 1-1.877 0v-3.755zM22.203 40.35h-3.755a.939.939 0 0 1 0-1.877h3.755a.939.939 0 0 1 0 1.877zM40.35 60.375a.939.939 0 0 1-1.877 0v-3.754a.939.939 0 0 1 1.877 0v3.754zM54.9 27.907L42.801 40.005a3.447 3.447 0 0 1-3.39 2.849c-.609 0-1.18-.16-1.677-.438l-9.823 9.822a.935.935 0 0 1-1.327 0 .938.938 0 0 1 0-1.327l9.823-9.822a3.424 3.424 0 0 1-.386-1.084l-8.115-8.115a.938.938 0 0 1 0-1.328l2.655-2.655a.938.938 0 0 1 1.327 0l8.116 8.116c.04.006.079.013.118.022l1.28-1.28a.938.938 0 0 1 0-1.326l9.514-9.515a.939.939 0 0 1 1.327 0l2.655 2.656a.938.938 0 0 1 0 1.327zm1.72 12.443a.939.939 0 0 1 0-1.877h3.755a.939.939 0 0 1 0 1.877h-3.754z" fill="#FFF"/><path d="M36.408 37.735a3.461 3.461 0 0 1 1.327-1.327l-6.51-6.51-1.327 1.328 6.51 6.509z" fill="#1FB6FF"/><path d="M42.416 37.735l10.492-10.492-1.328-1.327-8.85 8.85a.94.94 0 0 1-1.327 0l-1.28 1.279a3.454 3.454 0 0 1 2.293 1.69z" fill="#29EB7F"/><g transform="translate(10 10)"><mask id="b" fill="#fff"><use xlink:href="#a"/></mask><path d="M29.412 1.877c-15.183 0-27.535 12.352-27.535 27.535 0 15.182 12.352 27.534 27.535 27.534 15.182 0 27.534-12.352 27.534-27.534 0-15.183-12.352-27.535-27.534-27.535zM48.87 46.116a.939.939 0 0 1-1.324.1l-.013-.013c-.427.46-.871.904-1.331 1.33l.013.014a.939.939 0 0 1-.1 1.323 25.64 25.64 0 0 1-16.704 6.199c-14.148 0-25.657-11.51-25.657-25.657 0-14.148 11.51-25.657 25.657-25.657s25.657 11.51 25.657 25.657a25.642 25.642 0 0 1-6.198 16.704z" fill="#F50057" mask="url(#b)"/><path d="M50.21 8.614C44.653 3.06 37.267 0 29.411 0 21.555 0 14.169 3.06 8.614 8.614 3.06 14.17 0 21.555 0 29.412c0 7.856 3.06 15.242 8.614 20.797 5.555 5.555 12.941 8.615 20.798 8.615 7.856 0 15.242-3.06 20.797-8.615s8.615-12.94 8.615-20.797c0-7.857-3.06-15.242-8.615-20.798zM29.411 56.946c-15.183 0-27.535-12.352-27.535-27.534 0-15.183 12.352-27.535 27.535-27.535 15.182 0 27.534 12.352 27.534 27.535 0 15.182-12.352 27.534-27.534 27.534z" fill="#082947" mask="url(#b)"/></g><path d="M40.976 39.412c0-.863-.701-1.565-1.564-1.565a1.566 1.566 0 0 0 0 3.129c.863 0 1.564-.701 1.564-1.564z" fill="#FFC82C"/><path d="M39.412 23.141c.518 0 .938-.42.938-.938v-3.755a.939.939 0 0 0-1.877 0v3.755c0 .518.42.938.939.938zM61.314 39.412a.939.939 0 0 0-.939-.939h-3.754a.939.939 0 0 0 0 1.877h3.754c.519 0 .94-.42.94-.938zM39.412 55.682a.939.939 0 0 0-.939.939v3.754a.939.939 0 0 0 1.877 0v-3.754a.939.939 0 0 0-.938-.939zM22.203 38.473h-3.755a.939.939 0 0 0 0 1.877h3.755a.939.939 0 0 0 0-1.877zM52.244 23.924a.939.939 0 0 0-1.327 0l-9.514 9.514a.939.939 0 0 0 1.327 1.328l8.85-8.85 1.328 1.327-10.492 10.492a3.454 3.454 0 0 0-2.293-1.69c-.039-.009-.079-.016-.118-.023l-8.116-8.115a.938.938 0 0 0-1.327 0l-2.655 2.655a.938.938 0 0 0 0 1.327l8.115 8.116c.068.386.2.752.386 1.084l-9.823 9.822a.939.939 0 0 0 1.327 1.327l9.823-9.822a3.423 3.423 0 0 0 1.677.438 3.448 3.448 0 0 0 3.39-2.85l12.097-12.097a.94.94 0 0 0 0-1.327l-2.655-2.656zm-14.51 12.484a3.461 3.461 0 0 0-1.326 1.327l-6.51-6.51 1.328-1.327 6.509 6.51zm.113 3.004a1.566 1.566 0 0 1 3.129 0c0 .863-.701 1.564-1.564 1.564a1.566 1.566 0 0 1-1.565-1.564z" fill="#082947"/><path d="M39.412 13.755c-14.148 0-25.657 11.51-25.657 25.657s11.51 25.657 25.657 25.657a25.642 25.642 0 0 0 16.704-6.198.939.939 0 0 0 .1-1.324l-.013-.013a.938.938 0 0 0-1.311-.087 23.762 23.762 0 0 1-15.48 5.744c-13.112 0-23.78-10.667-23.78-23.78 0-13.111 10.668-23.779 23.78-23.779 13.112 0 23.78 10.668 23.78 23.78 0 5.673-2.04 11.17-5.745 15.48a.938.938 0 0 0 .087 1.31l.013.014a.939.939 0 0 0 1.324-.1 25.642 25.642 0 0 0 6.198-16.704c0-14.148-11.51-25.657-25.657-25.657z" fill="#082947"/></g></svg>