<?xml version="1.0" encoding="UTF-8"?>
<svg width="80px" height="80px" viewBox="0 0 80 80" version="1.1" xmlns="http://www.w3.org/2000/svg" xmlns:xlink="http://www.w3.org/1999/xlink">
    <!-- Generator: Sketch 52.3 (67297) - http://www.bohemiancoding.com/sketch -->
    <title>ico/img/happy-face-favorite</title>
    <desc>Created with Sketch.</desc>
    <g id="ico/img/happy-face-favorite" stroke="none" stroke-width="1" fill="none" fill-rule="evenodd">
        <g id="favourite" transform="translate(10.000000, 15.000000)" fill-rule="nonzero">
            <path d="M52.3774736,5.65431687 C46.8227603,-0.0162987756 38.0413422,-0.559138581 31.7635972,3.88771075 C30.5072332,4.77735222 28.834345,4.77735222 27.5784337,3.88771075 C21.300236,-0.559138581 12.5192706,-0.0162987756 6.96410467,5.65431687 C-10.5380639,23.5204914 14.1260582,41.6750637 24.9846647,48.372955 C27.8586822,50.1458996 31.4833488,50.1458996 34.3573662,48.372955 C45.21552,41.6750637 69.8796422,23.5204914 52.3774736,5.65431687 Z" id="Shape" fill="#F50057"></path>
            <path d="M58.4727629,35.3176357 C58.4727629,41.3309784 53.5976181,46.2061233 47.5838226,46.2061233 C41.5704799,46.2061233 36.6953351,41.3309784 36.6953351,35.3176357 C36.6953351,29.3038403 41.5704799,24.4286954 47.5838226,24.4286954 C53.5976181,24.4286954 58.4727629,29.3038403 58.4727629,35.3176357 Z" id="Shape" fill="#1FB6FF"></path>
            <path d="M52.5902632,33.578647 L49.3223586,33.578647 L49.3223586,30.3111952 C49.3223586,29.3509256 48.5440922,28.5726592 47.5838226,28.5726592 C46.6240058,28.5726592 45.8452865,29.3509256 45.8452865,30.3111952 L45.8452865,33.578647 L42.5778348,33.578647 C41.6175653,33.578647 40.8392987,34.3573662 40.8392987,35.3176357 C40.8392987,36.2774525 41.6175653,37.0561718 42.5778348,37.0561718 L45.8452865,37.0561718 L45.8452865,40.3236235 C45.8452865,41.283893 46.6240058,42.0621596 47.5838226,42.0621596 C48.5440922,42.0621596 49.3223586,41.283893 49.3223586,40.3236235 L49.3223586,37.0561718 L52.5902632,37.0561718 C53.5505327,37.0561718 54.3287993,36.2774525 54.3287993,35.3176357 C54.3287993,34.3573662 53.5505327,33.578647 52.5902632,33.578647 Z" id="Shape" fill="#FFFFFF"></path>
            <path d="M29.6710155,22.6788408 C27.8722645,22.6788408 26.4139769,21.2205531 26.4139769,19.421802 L26.4139769,17.0539522 C26.4139769,16.5627252 26.8119386,16.1647634 27.3031655,16.1647634 L32.0388654,16.1647634 C32.5296396,16.1647634 32.9280541,16.5627252 32.9280541,17.0539522 L32.9280541,19.421802 C32.9276014,21.2205531 31.4697664,22.6788408 29.6710155,22.6788408 Z" id="Shape" fill="#5C5656"></path>
            <path d="M22.2505451,19.421802 C22.2505451,17.8937919 20.6949176,16.655085 18.7766422,16.655085 C16.8579142,16.655085 15.3022866,17.8937919 15.3022866,19.421802 C15.3022866,20.9493596 16.8579142,22.1880665 18.7766422,22.1880665 C20.6949176,22.1880665 22.2505451,20.9493596 22.2505451,19.421802 Z" id="Shape" fill="#FFA6BB"></path>
            <path d="M44.0392917,19.421802 C44.0392917,17.8937919 42.4836641,16.655085 40.5653888,16.655085 C38.6466606,16.655085 37.0914859,17.8937919 37.0914859,19.421802 C37.0914859,20.9493596 38.6466606,22.1880665 40.5653888,22.1880665 C42.4836641,22.1880665 44.0392917,20.9493596 44.0392917,19.421802 Z" id="Shape" fill="#FFA6BB"></path>
            <path d="M39.8885368,17.0340315 L39.8885368,15.5906843 C39.8885368,15.110776 39.4996299,14.7214163 39.0192688,14.7214163 C38.5389077,14.7214163 38.1500007,15.110776 38.1500007,15.5906843 L38.1500007,17.0340315 C38.1500007,17.5139399 38.5389077,17.9032995 39.0192688,17.9032995 C39.4991772,17.9032995 39.8885368,17.5139399 39.8885368,17.0340315 Z" id="Shape" fill="#000000"></path>
            <path d="M19.4530414,15.5906843 L19.4530414,17.0340315 C19.4530414,17.5139399 19.8424011,17.9032995 20.3223095,17.9032995 C20.8026706,17.9032995 21.1915775,17.5139399 21.1915775,17.0340315 L21.1915775,15.5906843 C21.1915775,15.110776 20.8026706,14.7214163 20.3223095,14.7214163 C19.8424011,14.7214163 19.4530414,15.110776 19.4530414,15.5906843 Z" id="Shape" fill="#000000"></path>
            <path d="M56.8872542,28.1357613 C58.8127735,24.4110385 59.6118663,20.7388337 59.2609898,17.211507 C58.8372216,12.9484717 56.7301522,8.85521536 52.998638,5.04582925 C50.1902684,2.178603 46.429326,0.426031855 42.4098668,0.110016764 C38.4528863,-0.201470947 34.4931894,0.888736043 31.2610516,3.17826124 C30.309837,3.85194397 29.032194,3.85194397 28.0809794,3.17826124 C24.8488416,0.888736043 20.8905029,-0.201018232 16.9321642,0.110016764 C12.9122522,0.426031855 9.15176255,2.178603 6.34339294,5.04582925 C1.53163219,9.95764634 -0.559591295,15.301381 0.127673684,20.9289861 C1.63621603,33.2861744 16.0628961,43.8912444 24.528299,49.1127384 C26.1142605,50.0911176 27.8921853,50.5805336 29.6710155,50.5805336 C31.4489403,50.5800809 33.2277705,50.0911176 34.813732,49.1127384 C35.9890548,48.3878955 37.1630193,47.629097 38.3030281,46.8580743 C38.7009899,46.5891446 38.805121,46.0485686 38.5361911,45.6510595 C38.2672614,45.2530977 37.7266853,45.1489667 37.3291763,45.4178964 C36.2086355,46.1757895 35.0554971,46.9210057 33.9005478,47.6331716 C31.2913855,49.242223 28.0497401,49.242223 25.4405777,47.6331716 C21.6094599,45.2698493 16.0379952,41.4636324 11.2502298,36.7510226 C5.63937636,31.2280013 2.47741389,25.8335593 1.85308021,20.7180075 C1.23327402,15.6413916 3.16150975,10.7775653 7.58481629,6.26235178 C10.0993552,3.6957474 13.467316,2.12653744 17.0679873,1.84357262 C20.6206675,1.56422974 24.1747062,2.54215628 27.0754355,4.59670743 C28.6278938,5.69642213 30.7136844,5.69642213 32.26569,4.59670743 C35.1664193,2.54215628 38.7204579,1.56422974 42.2731383,1.84357262 C45.8742621,2.12608473 49.242223,3.6957474 51.7563091,6.26235178 C55.2044057,9.78198188 57.1471292,13.5239091 57.5310559,17.3835497 C57.8298668,20.3893156 57.191498,23.5367902 55.6336067,26.7553456 C53.5283483,24.7745916 50.6955306,23.5589746 47.5838226,23.5589746 C41.1005318,23.5589746 35.8256142,28.8338923 35.8256142,35.317183 C35.8256142,41.8004738 41.1005318,47.0753913 47.5838226,47.0753913 C54.0675661,47.0753913 59.342031,41.8009265 59.342031,35.3176357 C59.342031,32.6152082 58.4252249,30.1233065 56.8872542,28.1357613 Z M47.5838226,45.3368552 C42.0594432,45.3368552 37.5646031,40.8420151 37.5646031,35.3176357 C37.5646031,29.7928035 42.0594432,25.2979634 47.5838226,25.2979634 C53.1086548,25.2979634 57.6034949,29.7928035 57.6034949,35.3176357 C57.6034949,40.8420151 53.1086548,45.3368552 47.5838226,45.3368552 Z" id="Shape" fill="#000000"></path>
            <path d="M54.9929743,34.3021314 C54.8059911,33.8602535 54.2962017,33.6528969 53.8538711,33.8398801 C53.4115403,34.0268632 53.2471943,34.5212594 53.3916196,34.9789834 C53.6804702,35.8962423 53.0697188,36.1869038 52.5902632,36.1869038 L49.3223586,36.1869038 C48.8424502,36.1869038 48.4530906,36.5758107 48.4530906,37.0561718 L48.4530906,40.3236235 C48.4530906,40.8030792 48.0632783,41.1928916 47.5838226,41.1928916 C47.1043669,41.1928916 46.7145545,40.8030792 46.7145545,40.3236235 L46.7145545,37.0561718 C46.7145545,36.5758107 46.3251949,36.1869038 45.8452865,36.1869038 L42.5778348,36.1869038 C42.0983791,36.1869038 41.7085667,35.7966386 41.7085667,35.3176357 C41.7085667,34.8381801 42.0983791,34.4483677 42.5778348,34.4483677 L45.8452865,34.4483677 C46.3251949,34.4483677 46.7145545,34.0590081 46.7145545,33.578647 L46.7145545,30.3111952 C46.7145545,29.8317395 47.1043669,29.4419272 47.5838226,29.4419272 C48.0632783,29.4419272 48.4530906,29.8317395 48.4530906,30.3111952 L48.4530906,33.578647 C48.4530906,34.0590081 48.8424502,34.4483677 49.3223586,34.4483677 L50.7525762,34.4483677 C51.2329373,34.4483677 51.6218443,34.0590081 51.6218443,33.578647 C51.6218443,33.0987386 51.2329373,32.7093789 50.7525762,32.7093789 L50.1916267,32.7093789 L50.1916267,30.3111952 C50.1916267,28.873281 49.0217368,27.7033911 47.5838226,27.7033911 C46.1459084,27.7033911 44.9760185,28.873281 44.9760185,30.3111952 L44.9760185,32.7093789 L42.5778348,32.7093789 C41.1394679,32.7093789 39.9700307,33.8797215 39.9700307,35.3176357 C39.9700307,36.7550972 41.1394679,37.9254398 42.5778348,37.9254398 L44.9760185,37.9254398 L44.9760185,40.3236235 C44.9760185,41.7615377 46.1459084,42.9314276 47.5838226,42.9314276 C49.0217368,42.9314276 50.1916267,41.7615377 50.1916267,40.3236235 L50.1916267,37.9254398 L52.5902632,37.9254398 C54.0281774,37.9254398 55.1980673,36.7550972 55.1980673,35.3176357 C55.1980673,34.9658539 55.1292502,34.624485 54.9929743,34.3021314 Z" id="Shape" fill="#000000"></path>
            <path d="M27.3031655,15.2954954 C26.3333884,15.2954954 25.5447089,16.0841751 25.5447089,17.0539522 L25.5447089,19.421802 C25.5447089,21.6968396 27.3955254,23.5481088 29.6710155,23.5481088 C31.9460529,23.5481088 33.7968694,21.6968396 33.7973221,19.421802 L33.7973221,17.0539522 C33.7973221,16.0841751 33.0081898,15.2954954 32.0388654,15.2954954 L27.3031655,15.2954954 Z M32.0587861,17.0539522 L32.0587861,19.421802 C32.0583333,20.738381 30.9875944,21.8095727 29.6710155,21.8095727 C28.3544366,21.8095727 27.2832449,20.738381 27.2832449,19.421802 L27.2832449,17.0539522 C27.2832449,17.0430863 32.0587861,17.0430863 32.0587861,17.0539522 Z" id="Shape" fill="#000000"></path>
        </g>
    </g>
</svg>