<?xml version="1.0" encoding="UTF-8"?>
<svg width="80px" height="80px" viewBox="0 0 80 80" version="1.1" xmlns="http://www.w3.org/2000/svg" xmlns:xlink="http://www.w3.org/1999/xlink">
    <!-- Generator: Sketch 52.6 (67491) - http://www.bohemiancoding.com/sketch -->
    <title>ico/img/house</title>
    <desc>Created with Sketch.</desc>
    <g id="ico/img/house" stroke="none" stroke-width="1" fill="none" fill-rule="evenodd">
        <g id="home" transform="translate(10.000000, 12.000000)">
            <path d="M1.21826799,21.3740772 C18.6755232,10.306951 27.6444259,4.77338796 28.1249763,4.77338796 C28.6053789,4.77338796 37.5834693,10.3035484 55.0592476,21.3638693 L55.0592508,21.3638642 C55.5259269,21.6592208 55.6648088,22.2769705 55.3694521,22.7436466 C55.361479,22.7562444 55.3532252,22.7686624 55.3446968,22.7808912 L51.1173202,28.842555 C50.8088199,29.284911 50.205126,29.4029654 49.7527154,29.1094082 C35.3342382,19.7536427 28.1249918,15.0757599 28.1249763,15.0757599 C28.1249608,15.0757599 20.8645079,19.7518514 6.34361765,29.1040346 L6.34360435,29.1040139 C5.88518409,29.3992596 5.27474153,29.2728224 4.97130984,28.8197789 L0.922833622,22.7751408 C0.615497762,22.3162681 0.738342589,21.6951334 1.19721522,21.3877976 C1.20417507,21.3831361 1.21119321,21.3785623 1.21826799,21.3740772 Z" id="Rectangle" fill="#F50057"></path>
            <polygon id="Rectangle" fill="#FFD55F" points="7.5 28.2694244 28.125 14.5731354 48.75 28.2694244 48.75 43.125 7.5 43.125"></polygon>
            <polygon id="Rectangle" fill="#FFD55F" points="7.5 6.5625 15.9375 6.5625 15.9375 11.71875 7.5 16.875"></polygon>
            <rect id="Rectangle" fill="#F50057" x="4.6875" y="0.9375" width="14.0625" height="6.5625" rx="2"></rect>
            <path d="M17.713891,31.1766089 C18.1872856,31.1766089 18.5713605,31.5606838 18.5713605,32.0340784 L18.5713605,33.9222978 C18.5713605,34.3956924 18.1872856,34.7797673 17.713891,34.7797673 C17.2400498,34.7797673 16.8564215,34.3956924 16.8564215,33.9222978 L16.8564215,32.0340784 C16.8564215,31.5606838 17.2400498,31.1766089 17.713891,31.1766089 Z M38.5776426,31.1766089 C39.0510373,31.1766089 39.4351122,31.5606838 39.4351122,32.0340784 L39.4351122,33.9222978 C39.4351122,34.3956924 39.0510373,34.7797673 38.5776426,34.7797673 C38.1038014,34.7797673 37.7201731,34.3956924 37.7201731,33.9222978 L37.7201731,32.0340784 C37.7201731,31.5606838 38.1038014,31.1766089 38.5776426,31.1766089 Z M31.2846859,33.145216 C31.6410716,33.456942 31.6776927,33.9986662 31.3659668,34.355052 C30.5701279,35.2656667 29.3964665,35.7877406 28.1455436,35.7877406 C26.8946205,35.7877406 25.7209591,35.2652201 24.9251203,34.355052 C24.6133944,33.9986662 24.6500155,33.456942 25.0064012,33.145216 C25.362787,32.8334902 25.9045112,32.8701112 26.2162372,33.226497 C26.6865056,33.7642019 27.3894519,34.0728016 28.1455436,34.0728016 C28.9016352,34.0728016 29.6045815,33.7642019 30.07485,33.226497 C30.3861293,32.8701112 30.9278535,32.8334902 31.2846859,33.145216 Z" id="face" fill="#000000"></path>
            <path d="M55.1102801,20.4903951 L31.0604933,4.94384771 C29.2897294,3.79921521 27.0018042,3.79921521 25.2310404,4.94384771 L16.9345763,10.3070515 L16.9345763,8.4527737 C18.0885873,8.4188322 19.0175127,7.47204295 19.0175127,6.30999306 L19.0175127,2.65547584 C19.0175127,1.4724359 18.0546458,0.509569093 16.8716058,0.509569093 L14.8065334,0.509569093 C14.3326922,0.509569093 13.9490639,0.893643979 13.9490639,1.36703861 C13.9490639,1.8408798 14.3326922,2.22450812 14.8065334,2.22450812 L16.8716058,2.22450812 C17.1091964,2.22450812 17.3025736,2.41788544 17.3025736,2.65547584 L17.3025736,6.30999306 C17.3025736,6.54758357 17.1091964,6.7409609 16.8716058,6.7409609 L6.4810404,6.7409609 C6.24344989,6.7409609 6.05007268,6.54758357 6.05007268,6.30999306 L6.05007268,2.65547584 C6.05007268,2.41788544 6.24344989,2.22450812 6.4810404,2.22450812 L11.3900534,2.22450812 C11.8638946,2.22450812 12.2475229,1.8408798 12.2475229,1.36703861 C12.2475229,0.893643979 11.8638946,0.509569093 11.3900534,0.509569093 L6.4810404,0.509569093 C5.29755389,0.509569093 4.33513365,1.4724359 4.33513365,2.65547584 L4.33513365,6.30999306 C4.33513365,7.47204295 5.26405896,8.4188322 6.41807001,8.4527737 L6.41807001,17.1047304 L1.18080697,20.4903951 C0.0995915396,21.1893222 -0.211241159,22.6367486 0.487685785,23.717964 L3.78313765,28.8154415 C4.36014318,29.7081924 5.44761105,30.0739567 6.41807001,29.780988 L6.41807001,43.6166159 C6.41807001,44.0900105 6.80169832,44.4740854 7.27553952,44.4740854 L49.0155476,44.4740854 C49.4893889,44.4740854 49.8730171,44.0900105 49.8730171,43.6166159 L49.8730171,29.7823278 C50.0931903,29.848871 50.3191692,29.8819194 50.544255,29.8819194 C51.3106183,29.8819194 52.0617974,29.5058832 52.5079494,28.8154415 L55.8034013,23.717964 C56.5023282,22.6371951 56.191049,21.1893222 55.1102801,20.4903951 Z M8.13300903,8.45589992 L15.2191907,8.45589992 L15.2191907,11.4155095 L8.13300903,15.9962723 L8.13300903,8.45589992 Z M54.3631205,22.7868057 L51.0676686,27.88473 C50.8823301,28.1714463 50.4982553,28.2536204 50.2115389,28.0687285 L43.4723644,23.7121582 C43.074445,23.4549174 42.5438858,23.5688001 42.286645,23.9667194 C42.036103,24.3548138 42.1544518,24.9018972 42.5412062,25.1519925 L48.158078,28.7832864 L48.158078,42.7591463 L8.13300903,42.7591463 L8.13300903,28.7832864 L28.1455436,15.8462152 L39.5949946,23.2476956 C39.992914,23.5049364 40.5239199,23.3910537 40.780714,22.9931343 C41.0339355,22.6014672 40.9173733,22.0601896 40.5261528,21.8078614 L28.6108994,14.1053735 C28.3322218,13.9249476 27.9584187,13.9271806 27.6797411,14.1053735 L6.07954813,28.0687285 C5.79283182,28.254067 5.40875694,28.1714463 5.22341845,27.88473 L1.92796658,22.7872523 C1.7426282,22.500536 1.82524893,22.1160144 2.11196524,21.9306759 L26.1617521,6.38412851 C27.3666755,5.60526037 28.9244117,5.60526037 30.129335,6.38412851 L54.1795684,21.9306759 C54.4662848,22.1160144 54.548459,22.5000893 54.3631205,22.7868057 Z" id="home-sticks" fill="#000000" fill-rule="nonzero"></path>
            <path d="M59.4062858,43.8471087 C59.4062858,49.8761111 54.5184452,54.7639517 48.4889888,54.7639517 C42.4599864,54.7639517 37.5721458,49.8761111 37.5721458,43.8471087 C37.5721458,37.8176523 42.4599864,32.9298118 48.4889888,32.9298118 C54.5184452,32.9298118 59.4062858,37.8176523 59.4062858,43.8471087 Z" id="Shape" stroke="#000000" stroke-width="2" fill="#1FB6FF" fill-rule="nonzero"></path>
            <path d="M53.508467,42.1035914 L50.2320523,42.1035914 L50.2320523,38.8276306 C50.2320523,37.8648603 49.4517591,37.0845671 48.4889888,37.0845671 C47.5266725,37.0845671 46.7459253,37.8648603 46.7459253,38.8276306 L46.7459253,42.1035914 L43.4699646,42.1035914 C42.5071944,42.1035914 41.7269011,42.8843385 41.7269011,43.8471087 C41.7269011,44.8094251 42.5071944,45.5901723 43.4699646,45.5901723 L46.7459253,45.5901723 L46.7459253,48.866133 C46.7459253,49.8289032 47.5266725,50.6091965 48.4889888,50.6091965 C49.4517591,50.6091965 50.2320523,49.8289032 50.2320523,48.866133 L50.2320523,45.5901723 L53.508467,45.5901723 C54.4712372,45.5901723 55.2515305,44.8094251 55.2515305,43.8471087 C55.2515305,42.8843385 54.4712372,42.1035914 53.508467,42.1035914 Z" id="Shape" fill="#FFFFFF" fill-rule="nonzero"></path>
            <path d="M55.9174352,42.8289599 C55.7299651,42.3859313 55.2188481,42.1780347 54.7753655,42.3655048 C54.3318829,42.5529749 54.1671089,43.0486585 54.3119103,43.5075745 C54.6015131,44.4272221 53.9891712,44.7186405 53.508467,44.7186405 L50.2320523,44.7186405 C49.7508941,44.7186405 49.3605205,45.1085602 49.3605205,45.5901723 L49.3605205,48.866133 C49.3605205,49.3468372 48.969693,49.7376647 48.4889888,49.7376647 C48.0082845,49.7376647 47.617457,49.3468372 47.617457,48.866133 L47.617457,45.5901723 C47.617457,45.1085602 47.2270834,44.7186405 46.7459253,44.7186405 L43.4699646,44.7186405 C42.9892603,44.7186405 42.5984328,44.327359 42.5984328,43.8471087 C42.5984328,43.3664045 42.9892603,42.975577 43.4699646,42.975577 L46.7459253,42.975577 C47.2270834,42.975577 47.617457,42.5852034 47.617457,42.1035914 L47.617457,38.8276306 C47.617457,38.3469264 48.0082845,37.9560989 48.4889888,37.9560989 C48.969693,37.9560989 49.3605205,38.3469264 49.3605205,38.8276306 L49.3605205,42.1035914 C49.3605205,42.5852034 49.7508941,42.975577 50.2320523,42.975577 L51.6659944,42.975577 C52.1476064,42.975577 52.5375261,42.5852034 52.5375261,42.1035914 C52.5375261,41.6224332 52.1476064,41.2320596 51.6659944,41.2320596 L51.103584,41.2320596 L51.103584,38.8276306 C51.103584,37.3859719 49.9306476,36.2130354 48.4889888,36.2130354 C47.04733,36.2130354 45.8743935,37.3859719 45.8743935,38.8276306 L45.8743935,41.2320596 L43.4699646,41.2320596 C42.0278519,41.2320596 40.8553693,42.40545 40.8553693,43.8471087 C40.8553693,45.2883136 42.0278519,46.461704 43.4699646,46.461704 L45.8743935,46.461704 L45.8743935,48.866133 C45.8743935,50.3077917 47.04733,51.4807282 48.4889888,51.4807282 C49.9306476,51.4807282 51.103584,50.3077917 51.103584,48.866133 L51.103584,46.461704 L53.508467,46.461704 C54.9501258,46.461704 56.1230623,45.2883136 56.1230623,43.8471087 C56.1230623,43.4944108 56.054066,43.1521529 55.9174352,42.8289599 Z" id="Shape" fill="#000000" fill-rule="nonzero"></path>
        </g>
    </g>
</svg>