<?xml version="1.0" encoding="UTF-8"?>
<svg width="80px" height="80px" viewBox="0 0 80 80" version="1.1" xmlns="http://www.w3.org/2000/svg" xmlns:xlink="http://www.w3.org/1999/xlink">
    <!-- Generator: Sketch 52.3 (67297) - http://www.bohemiancoding.com/sketch -->
    <title>ico/img/house</title>
    <desc>Created with Sketch.</desc>
    <g id="ico/img/house" stroke="none" stroke-width="1" fill="none" fill-rule="evenodd">
        <g id="home" transform="translate(10.000000, 10.000000)" fill-rule="nonzero">
            <path d="M45.832905,16.9339364 L38.2919579,16.9339364 L38.2919579,4.59412697 C38.2919579,2.51165022 39.9799548,0.823653399 42.0624315,0.823653399 C44.1449081,0.823653399 45.832905,2.51165022 45.832905,4.59412697 L45.832905,16.9339364 Z" id="Shape" fill="#F50057"></path>
            <path d="M42.4517715,53.2500685 L13.6885794,53.2500685 C10.5905634,53.2500685 8.07891316,50.7388466 8.07891316,47.6408306 L8.07891316,22.9847691 L28.0701754,5.01302083 L48.0614377,22.9847691 L48.0614377,47.6408306 C48.0614377,50.7388466 45.5497875,53.2500685 42.4517715,53.2500685 Z" id="Shape" fill="#FFD55F"></path>
            <path d="M47.9920504,27.682977 L28.0701754,9.62984857 L8.14830044,27.682977 C6.35408103,29.3088679 3.58158575,29.1722348 1.95569496,27.3780154 C0.329375658,25.5837959 0.466008772,22.8113007 2.26022818,21.1849815 L22.2343579,3.08473816 C25.5610952,0.0698156798 30.5792557,0.0698156798 33.9064213,3.08473816 L53.8801227,21.1854099 C55.6743421,22.8113007 55.8105469,25.5842242 54.1846559,27.3784436 C53.3194559,28.3331621 50.4737184,29.7200521 47.9920504,27.682977 Z" id="Shape" fill="#F50057"></path>
            <path d="M32.1683114,31.9691441 L23.9724678,31.9691441 C21.6766893,31.9691441 19.8156524,33.8301809 19.8156524,36.1255311 L19.8156524,53.2500685 L36.3246985,53.2500685 L36.3246985,36.1255311 C36.3246985,33.8301809 34.4636616,31.9691441 32.1683114,31.9691441 Z" id="Shape" fill="#FF7849"></path>
            <path d="M54.4322231,20.5759149 L39.1143263,6.69459298 L39.1143263,4.59412697 C39.1143263,2.96866436 40.4369689,1.64602182 42.0624315,1.64602182 C43.6878941,1.64602182 45.0105366,2.96866436 45.0105366,4.59412697 L45.0105366,9.92281732 C45.0105366,10.3772615 45.3788891,10.7451857 45.832905,10.7451857 C46.2869209,10.7451857 46.6552735,10.3772615 46.6552735,9.92281732 L46.6552735,4.59412697 C46.6552735,2.06148914 44.5950692,0.00128495614 42.0624315,0.00128495614 C37.2160259,0.00128495614 37.4695895,5.20405022 37.4695895,5.20405022 L34.4585218,2.47524331 C30.8165433,-0.824938377 25.3238076,-0.825366667 21.6818291,2.47524331 L1.70812774,20.5759149 C-0.419322259,22.5037692 -0.581654386,25.8030942 1.3462,27.9305441 C2.37244726,29.063014 4.28616711,30.2901419 7.25654474,29.2193497 L7.25654474,47.6404023 C7.25654474,51.1872944 10.1416873,54.072437 13.6885794,54.072437 L42.4517715,54.072437 C45.9986636,54.072437 48.8838061,51.1872944 48.8838061,47.6404023 L48.8838061,29.1705215 C51.3282106,30.174068 53.8240132,29.0013364 54.7941509,27.9305441 C56.7220053,25.8030942 56.5596731,22.5037692 54.4322231,20.5759149 Z M53.5755894,26.8259149 C52.9939351,27.4675336 50.6261993,28.7657621 48.5287315,27.0593476 L28.6222759,9.02035362 C28.3091763,8.7363795 27.8311746,8.7363795 27.518075,9.02035362 L19.2168654,16.5428831 C18.8802083,16.8478447 18.8545093,17.3682498 19.1594709,17.7049068 C19.4644326,18.0411355 19.9848376,18.0668345 20.3210663,17.7618729 L28.0701754,10.7396175 L47.2390693,28.1104373 L47.2390693,47.6404023 C47.2390693,50.2801193 45.0914885,52.4277001 42.4521998,52.4277001 L20.6380208,52.4277001 L20.6380208,36.1255311 C20.6380208,34.2871951 22.1341317,32.7915125 23.9724678,32.7915125 L32.1678831,32.7915125 C34.0066475,32.7915125 35.50233,34.2871951 35.50233,36.1255311 L35.50233,49.7905531 C35.50233,50.244569 35.8702543,50.6129215 36.3246985,50.6129215 C36.7787144,50.6129215 37.1470669,50.244569 37.1470669,49.7905531 L37.1470669,36.1255311 C37.1470669,33.3804482 34.9133943,31.1467757 32.1678831,31.1467757 L23.9724678,31.1467757 C21.2269566,31.1467757 18.993284,33.3804482 18.993284,36.1255311 L18.993284,52.4277001 L13.6885794,52.4277001 C11.0488624,52.4277001 8.90128158,50.2801193 8.90128158,47.6408306 L8.90128158,28.1104373 L17.5417181,20.2803762 C17.8783751,19.9754146 17.9040741,19.4554379 17.5991125,19.1187808 C17.2941509,18.7821238 16.7737458,18.7564248 16.4370888,19.0613864 L7.5962,27.073482 C6.14077917,28.3922697 3.88397752,28.2813356 2.5651898,26.8259149 C1.24597379,25.3704941 1.35733618,23.1136924 2.81232873,21.7944764 L22.7864583,3.69423311 C25.798811,0.964569627 30.3419682,0.964569627 33.3538925,3.69423311 L53.3280221,21.7949047 C54.7830147,23.1136924 54.8943771,25.3704941 53.5755894,26.8259149 Z" id="Shape" fill="#000000"></path>
            <path d="M58.3667048,47.7702493 C58.3667048,54.2011852 53.1530082,59.4148818 46.721588,59.4148818 C40.2906521,59.4148818 35.0769555,54.2011852 35.0769555,47.7702493 C35.0769555,41.3388292 40.2906521,36.1251326 46.721588,36.1251326 C53.1530082,36.1251326 58.3667048,41.3388292 58.3667048,47.7702493 Z" id="Shape" stroke="#000000" stroke-width="2" fill="#1FB6FF"></path>
            <path d="M52.0756982,45.9104974 L48.5808558,45.9104974 L48.5808558,42.4161393 C48.5808558,41.3891843 47.748543,40.5568716 46.721588,40.5568716 C45.6951173,40.5568716 44.8623203,41.3891843 44.8623203,42.4161393 L44.8623203,45.9104974 L41.3679622,45.9104974 C40.3410073,45.9104974 39.5086945,46.7432945 39.5086945,47.7702493 C39.5086945,48.7967201 40.3410073,49.6295171 41.3679622,49.6295171 L44.8623203,49.6295171 L44.8623203,53.1238752 C44.8623203,54.1508301 45.6951173,54.9831429 46.721588,54.9831429 C47.748543,54.9831429 48.5808558,54.1508301 48.5808558,53.1238752 L48.5808558,49.6295171 L52.0756982,49.6295171 C53.102653,49.6295171 53.9349659,48.7967201 53.9349659,47.7702493 C53.9349659,46.7432945 53.102653,45.9104974 52.0756982,45.9104974 Z" id="Shape" fill="#FFFFFF"></path>
            <path d="M54.6452642,46.6842239 C54.4452961,46.21166 53.9001046,45.9899037 53.4270566,46.1898718 C52.9540084,46.3898398 52.7782495,46.9185691 52.9327043,47.4080795 C53.241614,48.3890369 52.5884492,48.6998832 52.0756982,48.6998832 L48.5808558,48.6998832 C48.0676204,48.6998832 47.6512219,49.1157975 47.6512219,49.6295171 L47.6512219,53.1238752 C47.6512219,53.6366264 47.2343392,54.053509 46.721588,54.053509 C46.2088368,54.053509 45.7919542,53.6366264 45.7919542,53.1238752 L45.7919542,49.6295171 C45.7919542,49.1157975 45.3755557,48.6998832 44.8623203,48.6998832 L41.3679622,48.6998832 C40.855211,48.6998832 40.4383283,48.2825163 40.4383283,47.7702493 C40.4383283,47.2574981 40.855211,46.8406155 41.3679622,46.8406155 L44.8623203,46.8406155 C45.3755557,46.8406155 45.7919542,46.424217 45.7919542,45.9104974 L45.7919542,42.4161393 C45.7919542,41.9033881 46.2088368,41.4865055 46.721588,41.4865055 C47.2343392,41.4865055 47.6512219,41.9033881 47.6512219,42.4161393 L47.6512219,45.9104974 C47.6512219,46.424217 48.0676204,46.8406155 48.5808558,46.8406155 L50.110394,46.8406155 C50.6241135,46.8406155 51.0400279,46.424217 51.0400279,45.9104974 C51.0400279,45.3972621 50.6241135,44.9808636 50.110394,44.9808636 L49.5104896,44.9808636 L49.5104896,42.4161393 C49.5104896,40.87837 48.2593574,39.6272377 46.721588,39.6272377 C45.1838187,39.6272377 43.9326864,40.87837 43.9326864,42.4161393 L43.9326864,44.9808636 L41.3679622,44.9808636 C39.8297087,44.9808636 38.5790606,46.23248 38.5790606,47.7702493 C38.5790606,49.3075345 39.8297087,50.5591509 41.3679622,50.5591509 L43.9326864,50.5591509 L43.9326864,53.1238752 C43.9326864,54.6616445 45.1838187,55.9127768 46.721588,55.9127768 C48.2593574,55.9127768 49.5104896,54.6616445 49.5104896,53.1238752 L49.5104896,50.5591509 L52.0756982,50.5591509 C53.6134675,50.5591509 54.8645998,49.3075345 54.8645998,47.7702493 C54.8645998,47.3940382 54.7910037,47.0289631 54.6452642,46.6842239 Z" id="Shape" fill="#000000"></path>
        </g>
    </g>
</svg>