<svg width="80" height="80" xmlns="http://www.w3.org/2000/svg"><g fill="none" fill-rule="evenodd"><path d="M33.682 55.913h6.221a5.774 5.774 0 0 1 5.775 5.774v7.422H13.13v-7.422a5.774 5.774 0 0 1 5.775-5.774h6.221" fill="#515F75"/><path fill="#F2F2F2" d="M22.288 55.913l3.76 13.196h6.713l3.76-13.196"/><path fill="#F9C2AF" d="M33.683 48.498v7.415l-4.279 2.41-1.321-.744-2.956-1.666v-7.42l2.956.002z"/><path fill="#F50057" d="M26.072 69.11l3.4-4.2 3.289 4.2"/><path d="M28.083 48.495l-2.956-.001v7.42l2.956 1.665v-3.43a13.403 13.403 0 0 0 5.6-.627v-5.024l-5.6-.003zM15.982 40.692c-2.227 0-4.033-1.617-4.033-3.61 0-1.995 1.806-3.611 4.033-3.611H32.08c2.228 0 4.033 1.616 4.033 3.61 0 1.994-1.805 3.61-4.033 3.61" fill="#EA9E8F"/><path d="M42.839 25.57v13.428c0 7.417-6.012 13.429-13.429 13.429-7.416 0-13.428-6.012-13.428-13.429V25.57" fill="#F9C2AF"/><path d="M29.315 52.426a13.383 13.383 0 0 1-9.4-3.932 13.39 13.39 0 0 1-3.933-9.496V25.57h6.046V39c0 3.708.826 7.064 2.162 9.495 1.315 2.393 3.124 3.886 5.125 3.932z" fill="#EA9E8F"/><path d="M39.51 29.218c-4.865 1.754-9.576 1.163-12.908.235v-.001c-2.902-.809-4.757-1.875-4.757-1.875s-1.225 5.893-5.863 5.893c0 0-3.085-5.458-2.989-10.508.05-2.619 2.21-4.578 4.664-4.578.458 0 .928.068 1.394.214 1.315-3.53 4.788-5.764 8.548-5.536a61.853 61.853 0 0 1 2.107.168l.034.003c6.138.576 12.355 1.698 16.007-2.343 0 0 6.037 13.907-6.237 18.328z" fill="#515F75"/><path d="M27.599 13.062c.585.037 1.175.083 1.766.137-5.415-.229-9.718 11.697-2.764 16.253-2.901-.809-4.756-1.875-4.756-1.875s-1.225 5.893-5.863 5.893c0 0-3.086-5.458-2.989-10.508.05-2.619 2.21-4.578 4.664-4.578.458 0 .927.068 1.394.214 1.315-3.53 4.788-5.764 8.548-5.536z" fill="#3B485B"/><path fill="#F50057" d="M26.461 61.267l2.854 3.643 2.95-3.643-2.86-2.944z"/><path d="M29.743 13.234a.342.342 0 0 0-.037-.004l.034.003.003.001z" fill="#F4AF9D"/><path d="M35.256 43.44c0 1.181-.957 2.138-2.137 2.138h-.09a2.135 2.135 0 0 1-2.137-2.137c0-1.181.957-2.138 2.137-2.138h.09a2.136 2.136 0 0 1 2.137 2.138z" fill="#3B485B"/><path d="M35.256 43.44h-4.364c0-1.18.957-2.137 2.137-2.137h.09a2.136 2.136 0 0 1 2.137 2.138z" fill="#FFF"/><path fill="#FFC82C" d="M59.155 34.944v16.913l-19.99-4.753v-7.407z"/><path fill="#F8B700" d="M59.155 45.486v6.37l-19.99-4.752V44.4z"/><path d="M52.357 53.777v5.567h-6.68v-5.567c0-.615.5-1.113 1.113-1.113h4.455c.614 0 1.112.498 1.112 1.113z" fill="#F4AF9D"/><path d="M52.357 53.777v5.567H48.37v-5.567c0-.615.497-1.113 1.112-1.113h1.763c.614 0 1.112.498 1.112 1.113z" fill="#F9C2AF"/><path fill="#515F75" d="M45.678 59.343h6.68v9.766h-6.68z"/><path fill="#3B485B" d="M45.678 59.343h2.671v9.766h-2.671z"/><path d="M38.047 36.774v-1.866a.89.89 0 0 0-1.781 0v1.866a.89.89 0 0 0 1.781 0zM28.493 36.774v-1.866a.89.89 0 0 0-1.781 0v1.866a.89.89 0 0 0 1.781 0z" fill="#000"/><path d="M33.119 46.469a3.031 3.031 0 0 0 3.028-3.028 3.032 3.032 0 0 0-3.028-3.028h-.09a3.031 3.031 0 0 0-3.027 3.028 3.031 3.031 0 0 0 3.027 3.028h.09zm-1.336-3.028c0-.688.56-1.247 1.246-1.247h.09a1.248 1.248 0 0 1 0 2.493h-.09c-.687 0-1.246-.559-1.246-1.246z" fill="#000" fill-rule="nonzero"/><path d="M59.707 34.246a.892.892 0 0 0-.758-.168L43.73 37.697v-9.738a10.81 10.81 0 0 0 3.366-4.316c2.543-5.888-.406-12.815-.532-13.107a.89.89 0 0 0-1.478-.243c-.478.53-1.03.981-1.637 1.342a.89.89 0 0 0 .909 1.532c.353-.21.69-.444 1.011-.7.68 2.129 1.744 6.656.09 10.478-1.085 2.504-3.188 4.333-6.25 5.436-8.592 3.095-16.84-1.53-16.92-1.576a.89.89 0 0 0-1.316.59c-.01.049-1.04 4.719-4.47 5.154-.718-1.413-2.694-5.668-2.62-9.57a3.738 3.738 0 0 1 1.566-2.985 3.755 3.755 0 0 1 3.338-.545.89.89 0 0 0 1.1-.54c1.18-3.172 4.26-5.163 7.657-4.957 1.294.08 2.633.216 3.927.35 3.052.312 6.207.635 8.966.205a.89.89 0 1 0-.274-1.76c-2.532.395-5.436.097-8.51-.218-1.313-.134-2.67-.274-4-.354-3.924-.24-7.498 1.9-9.131 5.387a5.514 5.514 0 0 0-4.116.988 5.507 5.507 0 0 0-2.303 4.395c-.074 3.874 1.59 7.892 2.513 9.814-2.052.543-3.557 2.274-3.557 4.323 0 2.275 1.856 4.16 4.257 4.459.211 1.18.57 2.328 1.077 3.431a.89.89 0 1 0 1.619-.744 12.437 12.437 0 0 1-1.14-5.23v-4.702c1.838-.273 3.396-1.404 4.544-3.313.462-.769.779-1.535.984-2.127.968.452 2.59 1.12 4.647 1.636 5.637 1.41 10.054.542 12.766-.435a15.834 15.834 0 0 0 2.136-.947v9.01l-2.99.71a.89.89 0 0 0-.684.867v7.407c0 .21.074.405.198.559a12.46 12.46 0 0 1-9.063 3.874 12.457 12.457 0 0 1-8.865-3.672 12.695 12.695 0 0 1-.977-1.098.89.89 0 0 0-1.398 1.104c.346.437.72.859 1.115 1.253a14.278 14.278 0 0 0 4.951 3.235v2.663h-5.33a6.673 6.673 0 0 0-6.666 6.665v7.422c0 .492.398.891.89.891h39.227a.89.89 0 0 0 .89-.89V56.496a6.691 6.691 0 0 0 2.675-4.494l3.027.72a.891.891 0 0 0 1.096-.867V34.945a.89.89 0 0 0-.338-.698zM12.84 37.08c0-1.232.951-2.274 2.251-2.608v4.525c0 .233.006.465.017.695-1.308-.328-2.268-1.374-2.268-2.612zm27.465 11.21l2.597.617a6.745 6.745 0 0 0-.364 2.174c0 1.937.815 3.741 2.25 5.018v1.058a6.648 6.648 0 0 0-4.885-2.136h-5.33v-2.658a14.264 14.264 0 0 0 5.732-4.074zm11.161 10.162H46.57v-4.676c0-.122.099-.222.221-.222h4.455c.122 0 .222.1.222.222v4.676zm-28.158 7.036a.89.89 0 0 0-.642-.626l-3.03-.759.288-7.3h1.692l3.252 11.415h-3.65l1.862-1.863a.892.892 0 0 0 .228-.867zm1.584-8.686l3.053 1.72-3.103 3.103-1.374-4.823h1.424zm9.025 0h1.424l-1.374 4.823-3.103-3.103 3.053-1.72zm-4.513 2.78l1.701 1.7-1.778 2.197-1.678-2.141 1.755-1.756zm-3.024 3.024l1.874 2.391-1.813 2.24-1.04-3.652.98-.979zm5.992-.057l1.036 1.036-1.024 3.597-1.851-2.362 1.839-2.271zm-2.912 3.79l1.472 1.879h-2.994l1.522-1.88zm7.733-9.537h1.692l.288 7.301-3.03.759a.89.89 0 0 0-.415 1.493l1.863 1.863h-3.65l3.252-11.416zm.908 9.406l2.206-.552a.891.891 0 0 0 .674-.899l-.311-7.894a4.891 4.891 0 0 1 4.117 4.823v6.532H40.11l-2.01-2.01zm-8.691-12.89a14.44 14.44 0 0 0 3.382-.402v2.476L29.404 57.3l-3.387-1.908v-2.478c1.098.266 2.235.403 3.393.403zM14.02 61.686a4.891 4.891 0 0 1 4.117-4.823l-.31 7.894a.891.891 0 0 0 .673.9l2.207.55-2.01 2.01h-4.677v-6.531zm37.445 6.532H46.57v-7.985h4.897v7.985zm1.782-14.211v-.231a2.005 2.005 0 0 0-2.003-2.003H46.79c-.942 0-1.732.654-1.945 1.531a4.95 4.95 0 0 1-.201-3.983l9.531 2.266a4.91 4.91 0 0 1-.927 2.42zm5.017-3.278L40.056 46.4v-6l18.209-4.329V50.73z" fill="#000" fill-rule="nonzero"/><path d="M68.403 41.585h-4.394a.89.89 0 1 0 0 1.781h4.394a.89.89 0 0 0 0-1.78zM64.01 36.8a.885.885 0 0 0 .487-.145l3.444-2.256a.89.89 0 1 0-.976-1.49l-3.444 2.256a.89.89 0 0 0 .489 1.636zM67.941 50.553l-3.444-2.256a.89.89 0 1 0-.976 1.49l3.444 2.256a.889.889 0 0 0 1.233-.257.89.89 0 0 0-.257-1.233z" fill="#000"/></g></svg>