<svg width="80" height="80" xmlns="http://www.w3.org/2000/svg" xmlns:xlink="http://www.w3.org/1999/xlink"><defs><path id="a" d="M.007.053v41.584h26.358V.053z"/></defs><g fill="none" fill-rule="evenodd"><path d="M22.387 55.6l-3.818-4.063a7.035 7.035 0 0 1-1.908-4.817V32.332a2.746 2.746 0 0 0-5.492 0v18.135c0 2.12.66 4.187 1.887 5.916l8.836 12.447h13.303l-1.916-9.133a16.146 16.146 0 0 0-6.793-10.083l-4.091-2.751a2.932 2.932 0 0 0-3.83.489 3.155 3.155 0 0 0 .066 4.258c2.24 2.374 5.574 5.923 5.574 5.923M57.496 55.6l3.818-4.063a7.035 7.035 0 0 0 1.908-4.817V32.332a2.746 2.746 0 0 1 5.491 0v18.135c0 2.12-.659 4.187-1.886 5.916L57.99 68.83H44.688l1.916-9.133a16.146 16.146 0 0 1 6.792-10.083l4.092-2.751a2.932 2.932 0 0 1 3.83.489 3.155 3.155 0 0 1-.066 4.258c-2.24 2.374-5.574 5.923-5.574 5.923" fill="#F3B99D"/><path d="M42.764 34.875a4.316 4.316 0 0 1 2.107-1.206l2.987-.716.001.002-.001-.002V31.13h3.647v1.829l2.979.712a4.327 4.327 0 0 1 3.321 4.208v2.185h-6.602l-8.439-5.19M37.133 34.869a4.316 4.316 0 0 0-2.107-1.206l-2.986-.716-.001.002v-1.825h-3.646v1.829l-2.979.712a4.327 4.327 0 0 0-3.322 4.208v2.185h6.603l8.438-5.19" fill="#1FB6FF"/><path d="M37.405 34.803l-4.16.997a6.027 6.027 0 0 0-4.623 5.862v4.205H51.26v-4.202a6.027 6.027 0 0 0-4.627-5.862l-4.148-.991" fill="#F50057"/><path fill="#EE9E7E" d="M42.485 32.264v2.547l-2.539 5.774-2.541-5.782v-2.54"/><path d="M45.618 23.515v3.517a5.662 5.662 0 0 1-11.324 0v-3.517" fill="#F3B99D"/><path d="M39.956 17.602a5.662 5.662 0 0 0-5.662 5.662v1.363h2.769a6.22 6.22 0 0 0 4.768-2.225l3.787 2.225v-1.363a5.662 5.662 0 0 0-5.662-5.662" fill="#9C4831"/><path d="M34.284 25.641v-.978a4.065 4.065 0 0 0-8.13 0v.978h2.802a9.692 9.692 0 0 0 4.982-1.378" fill="#FFC82C"/><path d="M34.284 24.842v2.526a4.065 4.065 0 0 1-8.13 0v-2.526" fill="#F3B99D"/><path d="M45.614 25.647v-.978a4.065 4.065 0 0 1 8.13 0v.978h-2.802a9.692 9.692 0 0 1-4.982-1.378" fill="#FFC82C"/><path d="M45.614 24.848v2.526a4.065 4.065 0 0 0 8.13 0v-2.526" fill="#F3B99D"/><g transform="translate(10 28.363)"><mask id="b" fill="#fff"><use xlink:href="#a"/></mask><path d="M11.085 37.31a1.17 1.17 0 1 0-1.907 1.354l1.76 2.48a1.168 1.168 0 0 0 1.631.277 1.17 1.17 0 0 0 .277-1.63l-1.76-2.48M24.424 31.094a17.224 17.224 0 0 0-7.285-10.813l-4.091-2.751a4.116 4.116 0 0 0-5.217.532V3.97A3.892 3.892 0 0 0 4.764.147a3.896 3.896 0 0 0-3.3.768A3.897 3.897 0 0 0 0 3.97v18.135c0 2.376.727 4.656 2.102 6.593l2.086 2.938a1.168 1.168 0 0 0 1.63.277 1.17 1.17 0 0 0 .277-1.631L4.01 27.343a9.002 9.002 0 0 1-1.67-5.24V3.97c0-.48.214-.928.589-1.23.375-.3.858-.413 1.328-.309A1.567 1.567 0 0 1 5.49 3.97v14.387c0 2.037.749 3.977 2.108 5.487.058.07.118.139.182.206l2.55 2.707 1.204 1.281.012.012 1.805 1.921a1.17 1.17 0 0 0 1.705-1.6c-.02-.024-1.39-1.482-2.953-3.143l-2.682-2.855-.02-.022a1.974 1.974 0 0 1 .038-2.586 1.768 1.768 0 0 1 2.303-.294l4.09 2.751a14.897 14.897 0 0 1 6.301 9.353l1.917 9.133a1.17 1.17 0 0 0 2.289-.48l-1.916-9.134" fill="#0A090B" mask="url(#b)"/></g><path d="M18.658 62.253a1.17 1.17 0 0 0-1.904 1.359l.007.01a1.168 1.168 0 0 0 1.632.273 1.17 1.17 0 0 0 .272-1.631l-.007-.01M68.418 29.278a3.898 3.898 0 0 0-3.299-.769 3.892 3.892 0 0 0-3.067 3.823v14.093a4.116 4.116 0 0 0-5.217-.533l-4.091 2.751a17.224 17.224 0 0 0-7.285 10.814l-1.916 9.133a1.17 1.17 0 1 0 2.29.48l1.916-9.133a14.897 14.897 0 0 1 6.3-9.352l4.091-2.751c.73-.491 1.72-.365 2.303.293.658.744.667 1.832.04 2.584l-.022.025-5.635 5.997a1.17 1.17 0 0 0 1.705 1.6c.016-.016 4.795-5.097 5.571-5.92.064-.068.124-.137.182-.206a8.173 8.173 0 0 0 2.108-5.487V32.332c0-.745.507-1.378 1.234-1.539a1.57 1.57 0 0 1 1.328.31c.375.3.59.748.59 1.229v18.134c0 1.888-.578 3.7-1.67 5.24l-8.837 12.447a1.17 1.17 0 0 0 1.907 1.354l8.837-12.447a11.33 11.33 0 0 0 2.102-6.593V32.332a3.897 3.897 0 0 0-1.465-3.054" fill="#0A090B"/><path d="M46.905 34.665l-.587-.14 1.754-.42a1.168 1.168 0 0 0 .955-1.18v-.359c.214.027.431.042.652.042.222 0 .44-.015.656-.042v.393c0 .541.371 1.012.898 1.137l2.979.712a3.148 3.148 0 0 1 2.424 3.071v1.015h-4.757a7.172 7.172 0 0 0-4.974-4.229zm-6.959 3.013l-1.372-3.12v-.835a6.837 6.837 0 0 0 2.74.004v.839l-1.368 3.112zm-6.973-3.015a7.173 7.173 0 0 0-4.97 4.231h-4.741V37.88c0-1.467.997-2.73 2.424-3.07l2.979-.713a1.17 1.17 0 0 0 .897-1.137v-.393a5.253 5.253 0 0 0 1.308 0v.334a1.169 1.169 0 0 0 .95 1.203l1.744.418-.591.142zm-2.754-12.89a2.9 2.9 0 0 1 2.658 1.749 8.525 8.525 0 0 1-3.921.955H27.33a2.9 2.9 0 0 1 2.889-2.704zm5.245 1.491a4.497 4.497 0 0 1 4.492-4.492 4.5 4.5 0 0 1 4.436 3.778l-1.969-1.157a1.17 1.17 0 0 0-1.489.258 5.04 5.04 0 0 1-3.871 1.807h-1.6v-.194zm14.215-1.49a2.9 2.9 0 0 1 2.89 2.704h-1.627a8.525 8.525 0 0 1-3.922-.956 2.9 2.9 0 0 1 2.659-1.749zm-2.895 5.6v-.171c0-.057.004-.114.004-.171V25.99c1.312.543 2.724.827 4.154.827h1.632v.557a2.899 2.899 0 0 1-2.895 2.895 2.899 2.899 0 0 1-2.895-2.895zm-3.13 5.477v-.08a6.883 6.883 0 0 0 2.029-2.021c.294.347.632.655 1.005.916v.365l-2.09.5a5.5 5.5 0 0 0-.944.32zm-8.19-5.82v-1.234h1.599a7.37 7.37 0 0 0 4.97-1.92l2.411 1.417v1.909a4.497 4.497 0 0 1-4.488 4.321 4.497 4.497 0 0 1-4.492-4.492zm-8.14.343v-.557h1.632c1.432 0 2.844-.284 4.158-.829v1.386a2.899 2.899 0 0 1-2.895 2.895 2.899 2.899 0 0 1-2.896-2.895zm8.911 5.473a5.488 5.488 0 0 0-.936-.316l-2.09-.5v-.365a5.277 5.277 0 0 0 1.014-.926 6.886 6.886 0 0 0 2.012 2.017v.09zm15.025 14.19a1.17 1.17 0 0 0 1.17-1.17v-4.202c0-.145-.006-.289-.014-.432h5.39a1.17 1.17 0 0 0 1.169-1.17V37.88a5.479 5.479 0 0 0-4.22-5.347l-2.08-.497v-.373a5.231 5.231 0 0 0 2.239-4.29V24.67a5.24 5.24 0 0 0-5.235-5.235 5.21 5.21 0 0 0-3.396 1.256 6.841 6.841 0 0 0-6.327-4.257 6.841 6.841 0 0 0-6.33 4.267 5.21 5.21 0 0 0-3.407-1.266 5.24 5.24 0 0 0-5.235 5.235v2.705c0 1.773.887 3.341 2.24 4.289v.373l-2.082.497a5.48 5.48 0 0 0-4.22 5.346v2.185c0 .646.525 1.17 1.17 1.17h5.375a7.319 7.319 0 0 0-.014.427v4.206c0 .646.524 1.17 1.17 1.17h7.03a1.17 1.17 0 0 0 0-2.34h-1.209V42.28a1.17 1.17 0 0 0-2.339 0v2.418h-2.313v-3.036a4.843 4.843 0 0 1 3.726-4.724l3.21-.77 2.147 4.887a1.17 1.17 0 0 0 2.141 0l2.146-4.88 3.2.765a4.842 4.842 0 0 1 3.729 4.725v3.033h-2.313V42.28a1.17 1.17 0 0 0-2.34 0v2.418h-1.325a1.17 1.17 0 0 0 0 2.339h7.147z" fill="#0A090B"/><path d="M39.941 44.698c-.308 0-.609.124-.826.342-.22.218-.343.519-.343.828 0 .307.124.608.343.827.217.217.518.342.826.342.308 0 .609-.125.827-.342a1.18 1.18 0 0 0 .343-.827c0-.31-.125-.61-.343-.828a1.179 1.179 0 0 0-.827-.342M39.94 14.206a1.17 1.17 0 0 0 1.17-1.17v-1.75a1.17 1.17 0 0 0-2.339 0v1.75c0 .646.524 1.17 1.17 1.17M33.98 15.587a1.166 1.166 0 0 0 1.653-.001 1.17 1.17 0 0 0 0-1.654l-1.228-1.226a1.17 1.17 0 1 0-1.653 1.655l1.227 1.226M45.058 15.952c.3 0 .599-.115.827-.343l1.218-1.219a1.17 1.17 0 0 0-1.655-1.653l-1.218 1.218a1.17 1.17 0 0 0 .828 1.997" fill="#0A090B"/></g></svg>