<svg width="80" height="80" xmlns="http://www.w3.org/2000/svg"><g transform="translate(22 10)" fill-rule="nonzero" fill="none"><g fill="#355766"><path d="M14.924 39.573a2.62 2.62 0 0 1 5.24 0M14.924 29.09a2.62 2.62 0 0 0 5.24 0"/></g><g fill="#252525"><path d="M13.176 43.286v4.15l-5.24 11.573H4.222l5.46-11.574v-4.15M21.912 43.286v4.15l5.241 11.573h3.713l-5.46-11.574v-4.15"/></g><path fill="#515151" d="M15.797 43.286v15.723h3.494V43.067"/><path fill="#36D4E0" d="M12.303.701h10.482v2.621H12.303z"/><g fill="#355766"><path d="M24.532 6.115v-2.62H10.556v2.401M28.9 10.482h2.62V24.46h-2.402"/></g><g fill="#36D4E0"><path d="M.947 12.275h2.402v10.482H.947zM31.74 12.275h2.402v10.482H31.74z"/></g><path fill="#355766" d="M6.188 10.482h-2.62V24.46H5.97"/><path d="M26.604 28.832l-18.156.04a2.3 2.3 0 0 1-2.306-2.305L6.183 8.41a2.3 2.3 0 0 1 2.3-2.296H26.6a2.3 2.3 0 0 1 2.301 2.3v18.116a2.3 2.3 0 0 1-2.296 2.3z" fill="#C6C6C6"/><circle fill="#355766" cx="17.544" cy="17.471" r="6.988"/><path d="M9.636 26.566L9.677 8.41a2.3 2.3 0 0 1 2.3-2.295H8.485A2.3 2.3 0 0 0 6.183 8.41l-.04 18.156a2.3 2.3 0 0 0 2.305 2.306l3.34-.007a2.3 2.3 0 0 1-2.152-2.299z" fill="#7C7C7C"/><circle fill="#86E5EC" cx="17.544" cy="17.471" r="4.368"/><circle fill="#36D4E0" cx="17.544" cy="17.471" r="2.621"/><path d="M25.406 26.566l-.04-18.156a2.3 2.3 0 0 0-2.302-2.295h3.495a2.3 2.3 0 0 1 2.3 2.295l.041 18.156a2.3 2.3 0 0 1-2.306 2.306l-3.34-.007a2.299 2.299 0 0 0 2.152-2.299z" fill="#7C7C7C"/><path d="M17.544 22.712a5.247 5.247 0 0 1-5.241-5.241 5.247 5.247 0 0 1 5.241-5.241 5.247 5.247 0 0 1 5.241 5.24 5.247 5.247 0 0 1-5.24 5.242zm0-8.735a3.498 3.498 0 0 0-3.494 3.494 3.498 3.498 0 0 0 3.494 3.494 3.498 3.498 0 0 0 3.494-3.494 3.498 3.498 0 0 0-3.494-3.494z" fill="#000"/><path fill="#FFF" d="M16.67 16.597h1.747v1.747H16.67z"/><path fill="#000" d="M33.268 12.23h1.747v10.482h-1.747zM.073 12.23H1.82v10.482H.073zM26.28 16.597h-.924c-.436-3.925-3.772-6.988-7.812-6.988-4.04 0-7.376 3.063-7.812 6.988H8.81v1.747h.923c.436 3.926 3.773 6.989 7.812 6.989 4.04 0 7.376-3.063 7.812-6.989h.924v-1.747zm-8.736 6.988a6.122 6.122 0 0 1-6.115-6.114 6.122 6.122 0 0 1 6.115-6.115 6.122 6.122 0 0 1 6.115 6.115 6.122 6.122 0 0 1-6.115 6.114z"/><g fill="#FFF"><path d="M8.809 8.735h1.747v1.747H8.809zM24.532 8.735h1.747v1.747h-1.747zM8.809 24.46h1.747v1.746H8.809zM24.532 24.46h1.747v1.746h-1.747z"/></g><path d="M22.785 43.941H12.303v-4.368h10.482v4.368zm-8.735-1.747h6.988v-.874H14.05v.874z" fill="#000"/><path fill="#B8B8B8" d="M13.176 40.447h8.736v2.62h-8.736z"/><path d="M20.98 29.718l5.626-.013a3.18 3.18 0 0 0 3.168-3.174v-1.198h2.62V9.609h-2.62V8.416a3.178 3.178 0 0 0-3.175-3.175h-1.193v-2.62H9.682v2.62H8.484a3.18 3.18 0 0 0-3.175 3.167l-.002 1.2H2.694v15.725h2.578l-.003 1.232c-.002.85.328 1.65.93 2.251.6.6 1.396.93 2.244.93h.008l5.66-.013a3.505 3.505 0 0 0 2.56 2.741v3.716a3.5 3.5 0 0 0-2.62 3.383h-1.748v2.62H6.188v2.622h1.747v-.874h.874v3.298L2.845 59.883h5.654l5.551-12.26v-3.682h.874v15.942h5.24V43.941h.874v3.683l5.552 12.259h5.654L26.28 47.239v-3.298h.873v.874H28.9v-2.621h-6.115v-2.62h-1.747a3.5 3.5 0 0 0-2.62-3.384v-3.716a3.505 3.505 0 0 0 2.563-2.756zm8.794-18.362h.873v12.23h-.873v-12.23zM5.276 23.586H4.44v-12.23h.862l-.027 12.23zm6.153-19.218h12.23v.873h-12.23v-.873zm-2.983 23.63h-.003c-.381 0-.74-.147-1.01-.417s-.418-.63-.417-1.013l.04-18.156a1.43 1.43 0 0 1 1.428-1.424h18.115c.787 0 1.428.64 1.428 1.428V26.53a1.43 1.43 0 0 1-1.425 1.427l-18.156.04zm7.474 1.731l3.251-.007a1.749 1.749 0 0 1-1.627 1.116c-.738 0-1.369-.46-1.624-1.109zm-3.617 17.518L7.372 58.136H5.6l4.956-10.505v-3.69h1.747v3.306zm1.747-5.927h6.988v.874H14.05v-.874zm4.368 16.816H16.67V43.941h1.747v14.195zm11.07 0h-1.772l-4.93-10.89v-3.305h1.746v3.69l4.956 10.505zM19.29 39.573h-3.494c0-.963.784-1.747 1.747-1.747.963 0 1.747.784 1.747 1.747zM12.303 0h10.482v1.747H12.303z" fill="#000"/></g></svg>