<svg width="80" height="80" xmlns="http://www.w3.org/2000/svg"><g fill="none" fill-rule="evenodd"><g fill="#C8F5FF"><path d="M37.467 17.896L26.153 15.69s-4.046 6.981-5.765 15.794c-1.64 8.405.72 15.939 5.272 16.827 4.551.888 9.571-5.206 11.211-13.61 1.72-8.814.596-16.804.596-16.804zM42.297 17.896L53.61 15.69s4.046 6.981 5.766 15.794c1.64 8.405-.72 15.939-5.272 16.827-4.552.888-9.572-5.206-11.212-13.61-1.72-8.814-.595-16.804-.595-16.804zM29.223 64.92l-12.836-2.504a1.701 1.701 0 0 0-1.996 1.344l-.081.419a1.701 1.701 0 0 0 1.344 1.995l12.835 2.504a1.7 1.7 0 0 0 1.996-1.343l.082-.419a1.701 1.701 0 0 0-1.344-1.995zM50.682 64.92l12.836-2.504a1.701 1.701 0 0 1 1.996 1.344l.081.419a1.701 1.701 0 0 1-1.344 1.995l-12.835 2.504a1.7 1.7 0 0 1-1.996-1.343l-.082-.419a1.701 1.701 0 0 1 1.344-1.995z"/></g><path d="M54.104 48.31c4.129-.806 6.455-7.082 5.626-14.516H42.725c.053.3.108.603.167.905 1.64 8.405 6.66 14.499 11.212 13.61zM25.66 48.31c4.072.794 8.518-4 10.584-11.037H19.873c.127 5.832 2.322 10.36 5.787 11.037z" fill="#FFC82C"/><path d="M37.683 16.655l-11.358-2.217a1.176 1.176 0 0 0-1.244.565c-.17.293-4.18 7.282-5.925 16.222a28.631 28.631 0 0 0-.538 6.057c.02 1.525.203 3.06.546 4.545.097.421.21.839.34 1.251.969 3.094 2.633 5.208 4.752 6.082L21.803 62.38l-5.283-1.03c-1.338-.261-2.718.483-3.227 1.749a3.618 3.618 0 0 0-.183.663c-.042.214-.088.427-.103.645a2.893 2.893 0 0 0 .58 1.937 2.891 2.891 0 0 0 1.746 1.088l12.887 2.515c1.117.218 2.302-.279 2.943-1.218.167-.246.295-.518.376-.805.099-.35.179-.73.197-1.094a2.902 2.902 0 0 0-.582-1.876 2.903 2.903 0 0 0-1.748-1.09l-5.294-1.033 2.454-13.225c2.164-.02 4.367-1.216 6.34-3.461.161-.183.316-.371.468-.562 1.449-1.807 2.66-4.083 3.55-6.635.46-1.32.823-2.674 1.09-4.045 1.745-8.939.656-16.923.608-17.258a1.177 1.177 0 0 0-.94-.991zM29.295 66.4c.09.133.096.294.073.448-.02.142-.046.3-.098.434-.095.247-.332.409-.6.356l-12.886-2.514a.538.538 0 0 1-.367-.27c-.102-.19-.046-.385-.009-.583.034-.178.06-.353.2-.48a.538.538 0 0 1 .46-.13l12.888 2.514a.531.531 0 0 1 .339.225zm-2.574-49.487l9.665 1.886c.224 2.238.674 8.713-.68 15.655a28.266 28.266 0 0 1-.372 1.633H20.971c.039-1.43.203-2.914.495-4.412 1.352-6.928 4.206-12.77 5.255-14.762zm6.882 23.904c-.599 1.222-1.317 2.393-2.183 3.445-1.263 1.534-2.596 2.505-3.88 2.85a3.765 3.765 0 0 1-1.974.014c-1.091-.304-2.044-1.149-2.796-2.402-.869-1.46-1.33-3.15-1.579-4.82a20.153 20.153 0 0 1-.163-1.465h13.58c-.291.81-.624 1.606-1.005 2.378z" fill="#000" fill-rule="nonzero"/><path d="M33.642 30.422a1.177 1.177 0 0 0 1.279-1.065c.22-2.42.282-4.92.183-7.432a1.176 1.176 0 1 0-2.352.093c.096 2.41.037 4.807-.175 7.126-.059.647.418 1.22 1.065 1.278z" fill="#000"/><path d="M66.853 64.05c-.084-.431-.177-.867-.385-1.257a2.897 2.897 0 0 0-3.08-1.441l-5.29 1.03-2.58-13.227c4.535-1.885 6.755-9.398 5.09-17.93-1.744-8.94-5.755-15.929-5.924-16.222a1.177 1.177 0 0 0-1.244-.565l-11.358 2.217c-.492.096-.87.494-.94.99-.047.336-1.136 8.32.608 17.26 1.665 8.532 6.547 14.66 11.458 14.701l2.581 13.228-5.289 1.032a2.935 2.935 0 0 0-2.26 2.187c-.15.648-.05 1.341.155 1.966.2.609.606 1.143 1.14 1.497a2.913 2.913 0 0 0 2.152.432l12.887-2.515c1.542-.3 2.58-1.839 2.279-3.383zM43.379 18.8l9.665-1.887c1.049 1.992 3.903 7.834 5.255 14.762.06.307.113.614.162.919H43.737c-.95-6.203-.56-11.756-.358-13.795zm21.083 46.1a.527.527 0 0 1-.338.223l-12.887 2.515a.54.54 0 0 1-.46-.13c-.14-.125-.168-.306-.201-.482-.035-.18-.085-.369-.008-.545a.536.536 0 0 1 .383-.306l12.887-2.515c.264-.052.504.114.6.356.098.248.184.645.024.883zm-11.43-17.652c-1.015-.061-1.965-.526-2.773-1.12-.808-.594-1.505-1.33-2.122-2.118-.373-.478-.716-.98-1.035-1.496a21.664 21.664 0 0 1-1.64-3.282 26.16 26.16 0 0 1-1.301-4.285h14.571c.15 2.14.056 4.33-.44 6.424-.143.598-.32 1.187-.54 1.761-.825 2.159-2.065 3.559-3.514 3.983-.39.113-.8.157-1.207.133z" fill="#000" fill-rule="nonzero"/><path d="M40.884 11.176a1.177 1.177 0 0 0-2.353 0V15a1.176 1.176 0 1 0 2.353 0v-3.823zM34.936 14.452a1.176 1.176 0 1 0 2.011-1.221l-1.45-2.388a1.177 1.177 0 0 0-2.01 1.222l1.449 2.387zM43.096 14.847a1.176 1.176 0 0 0 1.616-.395l1.45-2.387a1.177 1.177 0 0 0-2.011-1.222l-1.45 2.388a1.176 1.176 0 0 0 .395 1.616zM52.226 24.65a52.14 52.14 0 0 1 1.206 3.727c.14.498.217 1.02.697 1.31.421.252.973.212 1.353-.1a1.19 1.19 0 0 0 .39-1.213 37.015 37.015 0 0 0-.523-1.817 54.028 54.028 0 0 0-.609-1.859c-.105-.305-.201-.619-.328-.916A1.174 1.174 0 0 0 54 23.28a1.19 1.19 0 0 0-1.382.03 1.188 1.188 0 0 0-.392 1.341zM34.269 33.91a1.182 1.182 0 1 1-2.364 0 1.182 1.182 0 0 1 2.364 0zM52.74 19.91a1.182 1.182 0 1 1-2.364 0 1.182 1.182 0 0 1 2.364 0z" fill="#000"/></g></svg>